<svg width="532" height="796" viewBox="0 0 532 796" fill="none" xmlns="http://www.w3.org/2000/svg">
<rect x="9.40039" y="10.416" width="115.2" height="115.193" fill="#D9BC95"/>
<path fill-rule="evenodd" clip-rule="evenodd" d="M3 10.3831V16.7992V119.201V125.576H9.39961V132H15.8V131.992H118.199V132H124.6V125.576H131V10.3831H124.6V4H118.199H15.8H9.39961V10.3831H3ZM118.199 10.4161H15.8V16.7992H9.40039V119.201H15.8V125.609H118.199V119.201H124.6V16.7992H118.199V10.4161Z" fill="url(#paint0_linear_911_2)"/>
<g filter="url(#filter0_i_911_2)">
<path fill-rule="evenodd" clip-rule="evenodd" d="M124.6 119.157V16.7556H118.199V10.373H15.8V16.7553H9.40039V119.158H15.8V125.566H118.199V119.157H124.6ZM124.6 125.566V125.532H124.6V125.566H124.6Z" fill="#D9BC95"/>
</g>
<rect x="141.4" y="10.416" width="115.2" height="115.193" fill="#D9BC95"/>
<path fill-rule="evenodd" clip-rule="evenodd" d="M135 10.3831V16.7992V119.201V125.576H141.4V132H147.8V131.992H250.199V132H256.6V125.576H263V10.3831H256.6V4H250.199H147.8H141.4V10.3831H135ZM250.199 10.4161H147.8V16.7992H141.4V119.201H147.8V125.609H250.199V119.201H256.6V16.7992H250.199V10.4161Z" fill="url(#paint1_linear_911_2)"/>
<g filter="url(#filter1_i_911_2)">
<path fill-rule="evenodd" clip-rule="evenodd" d="M256.6 119.157V16.7556H250.199V10.373H147.8V16.7553H141.4V119.158H147.8V125.566H250.199V119.157H256.6ZM256.6 125.566V125.532H256.6V125.566H256.6Z" fill="#D9BC95"/>
</g>
<rect x="273.4" y="10.416" width="115.2" height="115.193" fill="#D9BC95"/>
<path fill-rule="evenodd" clip-rule="evenodd" d="M267 10.3831V16.7992V119.201V125.576H273.4V132H279.8V131.992H382.199V132H388.6V125.576H395V10.3831H388.6V4H382.199H279.8H273.4V10.3831H267ZM382.199 10.4161H279.8V16.7992H273.4V119.201H279.8V125.609H382.199V119.201H388.6V16.7992H382.199V10.4161Z" fill="url(#paint2_linear_911_2)"/>
<g filter="url(#filter2_i_911_2)">
<path fill-rule="evenodd" clip-rule="evenodd" d="M388.6 119.157V16.7556H382.199V10.373H279.8V16.7553H273.4V119.158H279.8V125.566H382.199V119.157H388.6ZM388.6 125.566V125.532H388.6V125.566H388.6Z" fill="#D9BC95"/>
</g>
<rect x="405.4" y="10.416" width="115.2" height="115.193" fill="#D9BC95"/>
<path fill-rule="evenodd" clip-rule="evenodd" d="M399 10.3831V16.7992V119.201V125.576H405.4V132H411.8V131.992H514.199V132H520.6V125.576H527V10.3831H520.6V4H514.199H411.8H405.4V10.3831H399ZM514.199 10.4161H411.8V16.7992H405.4V119.201H411.8V125.609H514.199V119.201H520.6V16.7992H514.199V10.4161Z" fill="url(#paint3_linear_911_2)"/>
<g filter="url(#filter3_i_911_2)">
<path fill-rule="evenodd" clip-rule="evenodd" d="M520.6 119.157V16.7556H514.199V10.373H411.8V16.7553H405.4V119.158H411.8V125.566H514.199V119.157H520.6ZM520.6 125.566V125.532H520.6V125.566H520.6Z" fill="#D9BC95"/>
</g>
<g clip-path="url(#clip0_911_2)">
<path fill-rule="evenodd" clip-rule="evenodd" d="M15.3418 153.625V187.578C15.3418 194.439 9.8169 200 3 200C9.8169 200 15.3418 205.561 15.3418 212.422V246.375C18.9768 246.375 21.924 249.341 21.924 253H114.076C114.076 249.341 117.023 246.375 120.658 246.375V212.422C120.658 205.561 126.183 200 133 200C126.183 200 120.658 194.439 120.658 187.578V153.625C117.023 153.625 114.076 150.659 114.076 147H21.924C21.924 150.659 18.9768 153.625 15.3418 153.625Z" fill="#A7A7A7"/>
<path fill-rule="evenodd" clip-rule="evenodd" d="M22.6748 180.953H22.7471V219.875H22.6748V239.854C25.8036 239.854 28.3395 242.403 28.3395 245.547H107.661C107.661 242.403 110.197 239.854 113.326 239.854V219.875H113.253V180.953H113.326V160.146C110.197 160.146 107.661 157.597 107.661 154.453H28.3395C28.3395 157.597 25.8036 160.146 22.6748 160.146V180.953Z" fill="url(#paint4_linear_911_2)"/>
</g>
<g clip-path="url(#clip1_911_2)">
<path fill-rule="evenodd" clip-rule="evenodd" d="M147.342 153.625V187.578C147.342 194.439 141.817 200 135 200C141.817 200 147.342 205.561 147.342 212.422V246.375C150.977 246.375 153.924 249.341 153.924 253H246.076C246.076 249.341 249.023 246.375 252.658 246.375V212.422C252.658 205.561 258.183 200 265 200C258.183 200 252.658 194.439 252.658 187.578V153.625C249.023 153.625 246.076 150.659 246.076 147H153.924C153.924 150.659 150.977 153.625 147.342 153.625Z" fill="#A7A7A7"/>
<path fill-rule="evenodd" clip-rule="evenodd" d="M154.675 180.953H154.747V219.875H154.675V239.854C157.804 239.854 160.339 242.403 160.339 245.547H239.661C239.661 242.403 242.197 239.854 245.326 239.854V219.875H245.253V180.953H245.326V160.146C242.197 160.146 239.661 157.597 239.661 154.453H160.339C160.339 157.597 157.804 160.146 154.675 160.146V180.953Z" fill="#423952"/>
</g>
<g clip-path="url(#clip2_911_2)">
<path fill-rule="evenodd" clip-rule="evenodd" d="M279.342 153.625V187.578C279.342 194.439 273.817 200 267 200C273.817 200 279.342 205.561 279.342 212.422V246.375C282.977 246.375 285.924 249.341 285.924 253H378.076C378.076 249.341 381.023 246.375 384.658 246.375V212.422C384.658 205.561 390.183 200 397 200C390.183 200 384.658 194.439 384.658 187.578V153.625C381.023 153.625 378.076 150.659 378.076 147H285.924C285.924 150.659 282.977 153.625 279.342 153.625Z" fill="#D2D2D2"/>
<g filter="url(#filter4_i_911_2)">
<path fill-rule="evenodd" clip-rule="evenodd" d="M286.675 180.953H286.747V219.875H286.675V239.854C289.804 239.854 292.339 242.403 292.339 245.547H371.661C371.661 242.403 374.197 239.854 377.326 239.854V219.875H377.253V180.953H377.326V160.146C374.197 160.146 371.661 157.597 371.661 154.453H292.339C292.339 157.597 289.804 160.146 286.675 160.146V180.953Z" fill="#D9BC95"/>
</g>
</g>
<g clip-path="url(#clip3_911_2)">
<path fill-rule="evenodd" clip-rule="evenodd" d="M411.342 153.625V187.578C411.342 194.439 405.817 200 399 200C405.817 200 411.342 205.561 411.342 212.422V246.375C414.977 246.375 417.924 249.341 417.924 253H510.076C510.076 249.341 513.023 246.375 516.658 246.375V212.422C516.658 205.561 522.183 200 529 200C522.183 200 516.658 194.439 516.658 187.578V153.625C513.023 153.625 510.076 150.659 510.076 147H417.924C417.924 150.659 414.977 153.625 411.342 153.625Z" fill="#1D1D1D"/>
<path fill-rule="evenodd" clip-rule="evenodd" d="M418.675 180.953H418.747V219.875H418.675V239.854C421.804 239.854 424.339 242.403 424.339 245.547H503.661C503.661 242.403 506.197 239.854 509.326 239.854V219.875H509.253V180.953H509.326V160.146C506.197 160.146 503.661 157.597 503.661 154.453H424.339C424.339 157.597 421.804 160.146 418.675 160.146V180.953Z" fill="#CFCFCF"/>
</g>
<path fill-rule="evenodd" clip-rule="evenodd" d="M118.346 275.467L123.115 268.964C121.53 268.342 119.805 268 118 268H18C15.5442 268 13.2361 268.632 11.2296 269.743L16.8009 278.88L8.69427 274.827L11.6809 282.08L8.69427 286.347L4 288.085V382C4 384.044 4.43784 385.985 5.22482 387.735L9.75995 383.2V391.307L14.2399 394.293H23.1999L22.9414 396H114.993L114.08 387.68L123.253 391.52V381.707L132 376.796V291.04H127.732L126.239 283.573L118.346 285.067L125.386 273.12L118.346 275.467Z" fill="#D9BC95"/>
<path fill-rule="evenodd" clip-rule="evenodd" d="M382.346 275.467L387.115 268.964C385.53 268.342 383.805 268 382 268H282C279.544 268 277.236 268.632 275.23 269.743L280.801 278.88L272.694 274.827L275.681 282.08L272.694 286.347L268 288.085V382C268 384.044 268.438 385.985 269.225 387.735L273.76 383.2V391.307L278.24 394.293H287.2L286.941 396H378.993L378.08 387.68L387.253 391.52V381.707L396 376.796V291.04H391.732L390.239 283.573L382.346 285.067L389.386 273.12L382.346 275.467Z" fill="#8B8B8B"/>
<path fill-rule="evenodd" clip-rule="evenodd" d="M514.346 275.467L519.115 268.964C517.53 268.342 515.805 268 514 268H414C411.544 268 409.236 268.632 407.23 269.743L412.801 278.88L404.694 274.827L407.681 282.08L404.694 286.347L400 288.085V382C400 384.044 400.438 385.985 401.225 387.735L405.76 383.2V391.307L410.24 394.293H419.2L418.941 396H510.993L510.08 387.68L519.253 391.52V381.707L528 376.796V291.04H523.732L522.239 283.573L514.346 285.067L521.386 273.12L514.346 275.467Z" fill="#0F0F0F"/>
<path fill-rule="evenodd" clip-rule="evenodd" d="M116.039 528H4V415.961L19.9609 400H132V512.039L116.039 528Z" fill="url(#paint5_linear_911_2)"/>
<path fill-rule="evenodd" clip-rule="evenodd" d="M108.533 518H14V423.467L27.467 410H122V504.533L108.533 518Z" fill="#ECECEC"/>
<path fill-rule="evenodd" clip-rule="evenodd" d="M512.039 528H400V415.961L415.961 400H528V512.039L512.039 528Z" fill="url(#paint6_linear_911_2)"/>
<g filter="url(#filter5_d_911_2)">
<path fill-rule="evenodd" clip-rule="evenodd" d="M504.533 518H410V423.467L423.467 410H518V504.533L504.533 518Z" fill="#86E9FF" fill-opacity="0.36" shape-rendering="crispEdges"/>
</g>
<path fill-rule="evenodd" clip-rule="evenodd" d="M248.039 528H136V415.961L151.961 400H264V512.039L248.039 528Z" fill="#67588F"/>
<path fill-rule="evenodd" clip-rule="evenodd" d="M240.533 518H146V423.467L159.467 410H254V504.533L240.533 518Z" fill="#353333"/>
<mask id="path-30-inside-1_911_2" fill="white">
<path fill-rule="evenodd" clip-rule="evenodd" d="M250.346 275.467L255.115 268.964C253.53 268.342 251.805 268 250 268H150C147.544 268 145.236 268.632 143.23 269.743L148.801 278.88L140.694 274.827L143.681 282.08L140.694 286.347L136 288.085V382C136 384.044 136.438 385.985 137.225 387.735L141.76 383.2V391.307L146.24 394.293H155.2L154.941 396H246.993L246.08 387.68L255.253 391.52V381.707L264 376.796V291.04H259.732L258.239 283.573L250.346 285.067L257.386 273.12L250.346 275.467ZM164.5 282.5H161L160 279L157.5 282.5L155.5 287.5L159.5 291L156.5 291.5L159.5 296L167 292.5L170 289.5L164.5 288L168.5 286L164.5 282.5ZM240.5 371L244.5 350.5V363L247 361.5L251 369.5L247 376.5L236 382L241.5 376.5L232.5 374.5L240.5 371Z"/>
</mask>
<path fill-rule="evenodd" clip-rule="evenodd" d="M250.346 275.467L255.115 268.964C253.53 268.342 251.805 268 250 268H150C147.544 268 145.236 268.632 143.23 269.743L148.801 278.88L140.694 274.827L143.681 282.08L140.694 286.347L136 288.085V382C136 384.044 136.438 385.985 137.225 387.735L141.76 383.2V391.307L146.24 394.293H155.2L154.941 396H246.993L246.08 387.68L255.253 391.52V381.707L264 376.796V291.04H259.732L258.239 283.573L250.346 285.067L257.386 273.12L250.346 275.467ZM164.5 282.5H161L160 279L157.5 282.5L155.5 287.5L159.5 291L156.5 291.5L159.5 296L167 292.5L170 289.5L164.5 288L168.5 286L164.5 282.5ZM240.5 371L244.5 350.5V363L247 361.5L251 369.5L247 376.5L236 382L241.5 376.5L232.5 374.5L240.5 371Z" fill="#D9BC95"/>
<path d="M255.115 268.964L255.921 269.555L256.689 268.508L255.48 268.033L255.115 268.964ZM250.346 275.467L249.539 274.875L247.681 277.409L250.662 276.415L250.346 275.467ZM143.23 269.743L142.745 268.868L141.833 269.373L142.376 270.264L143.23 269.743ZM148.801 278.88L148.354 279.774L151.467 281.331L149.655 278.359L148.801 278.88ZM140.694 274.827L141.141 273.932L138.753 272.738L139.77 275.207L140.694 274.827ZM143.681 282.08L144.5 282.653L144.814 282.205L144.606 281.699L143.681 282.08ZM140.694 286.347L141.042 287.284L141.334 287.176L141.514 286.92L140.694 286.347ZM136 288.085L135.653 287.148L135 287.389V288.085H136ZM137.225 387.735L136.313 388.145L136.907 389.467L137.932 388.442L137.225 387.735ZM141.76 383.2H142.76V380.786L141.053 382.493L141.76 383.2ZM141.76 391.307H140.76V391.842L141.205 392.139L141.76 391.307ZM146.24 394.293L145.685 395.125L145.937 395.293H146.24V394.293ZM155.2 394.293L156.189 394.443L156.363 393.293H155.2V394.293ZM154.941 396L153.953 395.85L153.778 397H154.941V396ZM246.993 396V397H248.109L247.987 395.891L246.993 396ZM246.08 387.68L246.466 386.758L244.901 386.102L245.086 387.789L246.08 387.68ZM255.253 391.52L254.867 392.442L256.253 393.023V391.52H255.253ZM255.253 381.707L254.764 380.835L254.253 381.121V381.707H255.253ZM264 376.796L264.49 377.668L265 377.382V376.796H264ZM264 291.04H265V290.04H264V291.04ZM259.732 291.04L258.752 291.236L258.913 292.04H259.732V291.04ZM258.239 283.573L259.22 283.377L259.026 282.407L258.053 282.591L258.239 283.573ZM250.346 285.067L249.484 284.559L248.364 286.459L250.532 286.049L250.346 285.067ZM257.386 273.12L258.247 273.628L259.603 271.327L257.069 272.171L257.386 273.12ZM161 282.5L160.038 282.775L160.246 283.5H161V282.5ZM164.5 282.5L165.159 281.747L164.876 281.5H164.5V282.5ZM160 279L160.962 278.725L160.392 276.731L159.186 278.419L160 279ZM157.5 282.5L156.686 281.919L156.616 282.017L156.572 282.129L157.5 282.5ZM155.5 287.5L154.572 287.129L154.308 287.786L154.841 288.253L155.5 287.5ZM159.5 291L159.664 291.986L161.749 291.639L160.159 290.247L159.5 291ZM156.5 291.5L156.336 290.514L154.81 290.768L155.668 292.055L156.5 291.5ZM159.5 296L158.668 296.555L159.144 297.269L159.923 296.906L159.5 296ZM167 292.5L167.423 293.406L167.583 293.332L167.707 293.207L167 292.5ZM170 289.5L170.707 290.207L171.926 288.989L170.263 288.535L170 289.5ZM164.5 288L164.053 287.106L161.712 288.276L164.237 288.965L164.5 288ZM168.5 286L168.947 286.894L170.279 286.228L169.159 285.247L168.5 286ZM244.5 350.5H245.5L243.519 350.308L244.5 350.5ZM240.5 371L240.901 371.916L241.381 371.706L241.481 371.192L240.5 371ZM244.5 363H243.5V364.766L245.014 363.857L244.5 363ZM247 361.5L247.894 361.053L247.411 360.087L246.486 360.643L247 361.5ZM251 369.5L251.868 369.996L252.134 369.531L251.894 369.053L251 369.5ZM247 376.5L247.447 377.394L247.718 377.259L247.868 376.996L247 376.5ZM236 382L235.293 381.293L236.447 382.894L236 382ZM241.5 376.5L242.207 377.207L243.495 375.919L241.717 375.524L241.5 376.5ZM232.5 374.5L232.099 373.584L229.293 374.812L232.283 375.476L232.5 374.5ZM254.308 268.372L249.539 274.875L251.152 276.058L255.921 269.555L254.308 268.372ZM250 269C251.678 269 253.279 269.317 254.749 269.894L255.48 268.033C253.781 267.366 251.932 267 250 267V269ZM150 269H250V267H150V269ZM143.714 270.618C145.576 269.587 147.718 269 150 269V267C147.371 267 144.896 267.677 142.745 268.868L143.714 270.618ZM149.655 278.359L144.083 269.222L142.376 270.264L147.947 279.401L149.655 278.359ZM140.247 275.721L148.354 279.774L149.248 277.986L141.141 273.932L140.247 275.721ZM144.606 281.699L141.619 274.446L139.77 275.207L142.756 282.461L144.606 281.699ZM141.514 286.92L144.5 282.653L142.862 281.507L139.875 285.773L141.514 286.92ZM136.347 289.023L141.042 287.284L140.347 285.409L135.653 287.148L136.347 289.023ZM137 382V288.085H135V382H137ZM138.137 387.325C137.407 385.701 137 383.899 137 382H135C135 384.188 135.469 386.268 136.313 388.145L138.137 387.325ZM141.053 382.493L136.518 387.028L137.932 388.442L142.467 383.907L141.053 382.493ZM142.76 391.307V383.2H140.76V391.307H142.76ZM146.795 393.461L142.315 390.475L141.205 392.139L145.685 395.125L146.795 393.461ZM155.2 393.293H146.24V395.293H155.2V393.293ZM155.93 396.15L156.189 394.443L154.211 394.144L153.953 395.85L155.93 396.15ZM246.993 395H154.941V397H246.993V395ZM245.086 387.789L245.999 396.109L247.987 395.891L247.074 387.571L245.086 387.789ZM255.64 390.598L246.466 386.758L245.694 388.602L254.867 392.442L255.64 390.598ZM254.253 381.707V391.52H256.253V381.707H254.253ZM263.51 375.924L254.764 380.835L255.743 382.579L264.49 377.668L263.51 375.924ZM263 291.04V376.796H265V291.04H263ZM259.732 292.04H264V290.04H259.732V292.04ZM257.258 283.769L258.752 291.236L260.713 290.844L259.22 283.377L257.258 283.769ZM250.532 286.049L258.425 284.556L258.053 282.591L250.16 284.084L250.532 286.049ZM256.524 272.612L249.484 284.559L251.207 285.574L258.247 273.628L256.524 272.612ZM250.662 276.415L257.702 274.069L257.069 272.171L250.029 274.518L250.662 276.415ZM161 283.5H164.5V281.5H161V283.5ZM159.038 279.275L160.038 282.775L161.962 282.225L160.962 278.725L159.038 279.275ZM158.314 283.081L160.814 279.581L159.186 278.419L156.686 281.919L158.314 283.081ZM156.428 287.871L158.428 282.871L156.572 282.129L154.572 287.129L156.428 287.871ZM160.159 290.247L156.159 286.747L154.841 288.253L158.841 291.753L160.159 290.247ZM156.664 292.486L159.664 291.986L159.336 290.014L156.336 290.514L156.664 292.486ZM160.332 295.445L157.332 290.945L155.668 292.055L158.668 296.555L160.332 295.445ZM166.577 291.594L159.077 295.094L159.923 296.906L167.423 293.406L166.577 291.594ZM169.293 288.793L166.293 291.793L167.707 293.207L170.707 290.207L169.293 288.793ZM164.237 288.965L169.737 290.465L170.263 288.535L164.763 287.035L164.237 288.965ZM168.053 285.106L164.053 287.106L164.947 288.894L168.947 286.894L168.053 285.106ZM163.841 283.253L167.841 286.753L169.159 285.247L165.159 281.747L163.841 283.253ZM243.519 350.308L239.519 370.808L241.481 371.192L245.481 350.692L243.519 350.308ZM245.5 363V350.5H243.5V363H245.5ZM246.486 360.643L243.986 362.143L245.014 363.857L247.514 362.357L246.486 360.643ZM251.894 369.053L247.894 361.053L246.106 361.947L250.106 369.947L251.894 369.053ZM247.868 376.996L251.868 369.996L250.132 369.004L246.132 376.004L247.868 376.996ZM236.447 382.894L247.447 377.394L246.553 375.606L235.553 381.106L236.447 382.894ZM240.793 375.793L235.293 381.293L236.707 382.707L242.207 377.207L240.793 375.793ZM232.283 375.476L241.283 377.476L241.717 375.524L232.717 373.524L232.283 375.476ZM240.099 370.084L232.099 373.584L232.901 375.416L240.901 371.916L240.099 370.084Z" fill="url(#paint7_linear_911_2)" mask="url(#path-30-inside-1_911_2)"/>
<path fill-rule="evenodd" clip-rule="evenodd" d="M268 528H380.039L396 512.039V400H283.961L268 415.961V528ZM300.938 420.688H297.875L297 417.625L294.812 420.688L293.062 425.062L296.562 428.125L293.938 428.562L296.562 432.5L303.125 429.438L305.75 426.812L300.938 425.5L304.438 423.75L300.938 420.688ZM366 487.5L367.438 498.125L360.438 501.188L368.312 502.938L363.5 507.75L373.125 502.938L376.625 496.812L373.125 489.812L370.938 491.125L366 487.5Z" fill="url(#paint8_linear_911_2)"/>
<g filter="url(#filter6_d_911_2)">
<path fill-rule="evenodd" clip-rule="evenodd" d="M376.052 414.533L379.893 409.297C378.102 408.465 376.105 408 374 408H290C287.309 408 284.795 408.759 282.661 410.075L287.201 417.52L280.107 413.973L282.721 420.32L280.107 424.053L276 425.575V506C276 508.278 276.544 510.429 277.509 512.33L281.04 508.799V515.893L284.96 518.506H292.8L292.574 520H373.119L372.32 512.721L380.347 516.081V507.494L388 503.198V428.16H384.266L382.959 421.627L376.052 422.933L382.212 412.48L376.052 414.533ZM300.938 420.688H297.875L297 417.625L294.812 420.688L293.062 425.062L296.562 428.125L293.938 428.562L296.562 432.5L303.125 429.438L305.75 426.812L300.938 425.5L304.438 423.75L300.938 420.688ZM367.438 498.125L366 487.5L370.938 491.125L373.125 489.812L376.625 496.812L373.125 502.938L363.5 507.75L368.312 502.938L360.438 501.188L367.438 498.125Z" fill="#D9BC95"/>
</g>
<path fill-rule="evenodd" clip-rule="evenodd" d="M379.893 409.297C379.583 409.153 379.267 409.02 378.945 408.898C377.407 408.318 375.741 408 374 408H290C287.666 408 285.466 408.571 283.531 409.581C283.277 409.714 283.027 409.854 282.782 410.001C282.742 410.026 282.702 410.05 282.661 410.075L287.201 417.52L280.107 413.973L282.721 420.32L280.107 424.053L276 425.575V506C276 507.899 276.378 509.71 277.063 511.362C277.2 511.691 277.349 512.014 277.509 512.33L281.04 508.799V515.893L284.96 518.506H292.8L292.574 520H373.119L372.32 512.721L380.347 516.081V507.494L388 503.198V428.16H384.266L382.959 421.627L376.052 422.933L382.212 412.48L376.052 414.533L379.893 409.297ZM379.995 414.273L373.388 416.476L378.329 409.738C376.976 409.26 375.519 409 374 409H290C287.856 409 285.834 409.519 284.053 410.437L289.866 419.971L282.049 416.062L283.854 420.445L280.748 424.883L277 426.271V506C277 507.618 277.295 509.165 277.834 510.591L282.04 506.385V515.357L285.263 517.506H293.963L293.737 519H372.003L371.141 511.143L379.347 514.578V506.909L387 502.612V429.16H383.446L382.173 422.793L374.071 424.326L379.995 414.273ZM297.875 420.688H300.938L304.438 423.75L300.938 425.5L305.75 426.812L303.125 429.438L296.562 432.5L293.938 428.562L296.562 428.125L293.062 425.062L294.812 420.688L297 417.625L297.875 420.688ZM294.314 427.486L291.871 425.349L293.929 420.204L297.392 415.356L298.629 419.688H301.313L306.217 423.978L303.726 425.224L307.676 426.301L303.708 430.269L296.207 433.769L292.248 427.83L294.314 427.486ZM365.336 487.308L367.317 487.5L371.938 489.359L373.536 488.399L377.759 496.844L373.843 503.697L363.947 508.644L362.793 507.043L366.317 503.519L357.23 501.499L366.556 497.419L365.336 487.308ZM367.438 498.125L360.438 501.188L368.312 502.938L363.5 507.75L373.125 502.938L376.625 496.812L373.125 489.812L370.938 491.125L366.317 487.5L367.438 498.125Z" fill="url(#paint9_linear_911_2)"/>
<path d="M13.9154 549.717L21.7175 541.915L29.5196 549.717L21.7175 557.52L13.9154 549.717Z" stroke="#383838" stroke-width="4"/>
<path d="M13.9154 642.284L21.7175 634.482L29.5196 642.284L21.7175 650.086L13.9154 642.284Z" stroke="#383838" stroke-width="4"/>
<path d="M106.482 549.717L114.284 541.915L122.086 549.717L114.284 557.52L106.482 549.717Z" stroke="#383838" stroke-width="4"/>
<path d="M106.482 642.284L114.284 634.482L122.086 642.284L114.284 650.086L106.482 642.284Z" stroke="#383838" stroke-width="4"/>
<path fill-rule="evenodd" clip-rule="evenodd" d="M41.4 552H94.5405L111 568.459V623.011L95.0108 639H40.4595L24 622.541V569.4L41.4 552ZM43.2 555H92.6757L108 570.324V621.114L93.1135 636H42.3243L27 620.676V571.2L43.2 555Z" fill="#383838"/>
<path d="M277.915 549.717L285.718 541.915L293.52 549.717L285.718 557.52L277.915 549.717Z" stroke="#2C86AC" stroke-width="4"/>
<path d="M277.915 642.284L285.718 634.482L293.52 642.284L285.718 650.086L277.915 642.284Z" stroke="#2C86AC" stroke-width="4"/>
<path d="M370.482 549.717L378.284 541.915L386.086 549.717L378.284 557.52L370.482 549.717Z" stroke="#2C86AC" stroke-width="4"/>
<path d="M370.482 642.284L378.284 634.482L386.086 642.284L378.284 650.086L370.482 642.284Z" stroke="#2C86AC" stroke-width="4"/>
<path fill-rule="evenodd" clip-rule="evenodd" d="M305.4 552H358.541L375 568.459V623.011L359.011 639H304.459L288 622.541V569.4L305.4 552Z" fill="#2C86AC"/>
<path d="M409.915 549.717L417.718 541.915L425.52 549.717L417.718 557.52L409.915 549.717Z" stroke="#D9BC95" stroke-width="4"/>
<path d="M409.915 642.284L417.718 634.482L425.52 642.284L417.718 650.086L409.915 642.284Z" stroke="#D9BC95" stroke-width="4"/>
<path d="M502.482 549.717L510.284 541.915L518.086 549.717L510.284 557.52L502.482 549.717Z" stroke="#D9BC95" stroke-width="4"/>
<path d="M502.482 642.284L510.284 634.482L518.086 642.284L510.284 650.086L502.482 642.284Z" stroke="#D9BC95" stroke-width="4"/>
<path fill-rule="evenodd" clip-rule="evenodd" d="M437.4 552H490.541L507 568.459V623.011L491.011 639H436.459L420 622.541V569.4L437.4 552ZM439.2 555H488.676L504 570.324V621.114L489.114 636H438.324L423 620.676V571.2L439.2 555Z" fill="#D9BC95"/>
<path fill-rule="evenodd" clip-rule="evenodd" d="M153.718 537.062L141.062 549.717L153.718 562.373L166.373 549.717L153.718 537.062ZM153.718 539.087L143.087 549.717L153.718 560.348L164.348 549.717L153.718 539.087ZM158.691 549.717L153.718 544.744L148.744 549.717L153.718 554.691L158.691 549.717ZM171.435 549.718L153.718 567.435L136 549.718L153.718 532L171.435 549.718ZM153.718 629.629L141.062 642.284L153.718 654.939L166.373 642.284L153.718 629.629ZM153.718 631.653L143.087 642.284L153.718 652.914L164.348 642.284L153.718 631.653ZM158.691 642.284L153.718 637.31L148.744 642.284L153.718 647.258L158.691 642.284ZM171.435 642.284L153.718 660.001L136 642.284L153.718 624.566L171.435 642.284ZM246.284 537.062L233.629 549.717L246.284 562.373L258.939 549.717L246.284 537.062ZM246.284 539.087L235.653 549.717L246.284 560.348L256.914 549.717L246.284 539.087ZM251.258 549.717L246.284 544.744L241.31 549.717L246.284 554.691L251.258 549.717ZM264.001 549.718L246.284 567.435L228.566 549.718L246.284 532L264.001 549.718ZM246.284 629.629L233.629 642.284L246.284 654.939L258.939 642.284L246.284 629.629ZM246.284 631.653L235.653 642.284L246.284 652.914L256.914 642.284L246.284 631.653ZM251.258 642.284L246.284 637.31L241.31 642.284L246.284 647.258L251.258 642.284ZM264.001 642.284L246.284 660.001L228.566 642.284L246.284 624.566L264.001 642.284Z" fill="url(#paint10_radial_911_2)"/>
<path fill-rule="evenodd" clip-rule="evenodd" d="M173.4 552H226.541L243 568.459V623.011L227.011 639H172.459L156 622.541V569.4L173.4 552ZM175.2 555H224.676L240 570.324V621.114L225.114 636H174.324L159 620.676V571.2L175.2 555Z" fill="url(#paint11_linear_911_2)"/>
<rect x="4" y="665" width="128" height="128" rx="8" fill="#D9BC95"/>
<path d="M12.4453 696.561L12.4453 760.318" stroke="#565656" stroke-linecap="square"/>
<path d="M12.3843 693.537C12.9177 693.537 13.3439 693.966 13.3439 694.487C13.3439 695.007 12.9177 695.436 12.3843 695.436C11.851 695.436 11.4248 695.007 11.4248 694.487C11.4248 693.966 11.851 693.537 12.3843 693.537Z" stroke="#565656"/>
<path d="M9.14746 681.834C11.194 683.926 11.921 685.383 12.4473 688.502C12.9735 685.383 13.7005 683.926 15.7471 681.834L12.4473 676.154L9.14746 681.834Z" stroke="#565656"/>
<path d="M10.542 676.908C11.6208 678.483 11.8746 678.861 12.4457 680.814C12.8899 679.05 13.3976 678.357 14.4129 676.782L12.4457 673.317L10.542 676.908Z" stroke="#565656"/>
<path d="M10.0041 692.635C7.83709 692.944 7.42153 690.033 8.80308 689.015C9.51994 688.486 10.3423 688.38 11.1186 688.689C11.5845 688.874 11.9459 689.307 12.1264 689.709C12.307 690.111 12.4414 690.921 12.4459 691.398C12.4505 690.921 12.5828 690.111 12.7633 689.709C12.9438 689.307 13.3053 688.874 13.7711 688.689C14.5475 688.38 15.3698 688.486 16.0867 689.015C17.4682 690.033 17.0527 692.944 14.8856 692.635M10.0041 692.635C10.0661 692.627 10.1296 692.615 10.1945 692.601M10.0041 692.635C10.0684 692.63 10.1321 692.618 10.1945 692.601M10.0041 692.635C9.99086 692.637 9.97759 692.638 9.9643 692.638M10.1945 692.601C10.2096 692.598 10.2248 692.594 10.2401 692.591M10.1945 692.601C10.9702 692.388 11.5546 691.338 10.8429 690.823C10.34 690.458 9.59741 690.792 9.67018 691.582M14.8856 692.635C14.8236 692.627 14.7601 692.615 14.6952 692.601M14.8856 692.635C14.8213 692.63 14.7577 692.618 14.6952 692.601M14.8856 692.635C14.8989 692.637 14.9121 692.638 14.9254 692.638M14.6952 692.601C14.6801 692.598 14.6649 692.594 14.6496 692.591M14.6952 692.601C13.9195 692.388 13.3352 691.338 14.0468 690.823C14.5497 690.458 15.2923 690.792 15.2196 691.582" stroke="#565656"/>
<path d="M12.4453 691.272C12.4453 691.768 12.4453 692.738 12.4453 692.653" stroke="#565656"/>
<path d="M12.5092 763.41C11.9759 763.41 11.5497 762.981 11.5497 762.461C11.5497 761.94 11.9759 761.512 12.5092 761.512C13.0426 761.512 13.4688 761.94 13.4688 762.461C13.4688 762.981 13.0426 763.41 12.5092 763.41Z" stroke="#565656"/>
<path d="M15.7441 775.115C13.6976 773.023 12.9706 771.566 12.4443 768.447C11.9181 771.566 11.1911 773.023 9.14455 775.115L12.4443 780.796L15.7441 775.115Z" stroke="#565656"/>
<path d="M14.3486 780.037C13.2699 778.462 13.016 778.084 12.4449 776.131C12.0007 777.895 11.493 778.588 10.4777 780.163L12.4449 783.628L14.3486 780.037Z" stroke="#565656"/>
<path d="M14.8865 764.312C17.0535 764.003 17.4691 766.914 16.0875 767.933C15.3707 768.461 14.5484 768.567 13.772 768.259C13.3062 768.074 12.9447 767.641 12.7642 767.239C12.5837 766.836 12.4492 766.027 12.4447 765.549C12.4402 766.027 12.3078 766.836 12.1273 767.239C11.9468 767.641 11.5853 768.074 11.1195 768.259C10.3432 768.567 9.52083 768.461 8.80396 767.933C7.42242 766.914 7.83797 764.003 10.005 764.312M14.8865 764.312C14.8245 764.321 14.761 764.332 14.6961 764.346M14.8865 764.312C14.8222 764.317 14.7585 764.329 14.6961 764.346M14.8865 764.312C14.8998 764.311 14.913 764.31 14.9263 764.309M14.6961 764.346C14.681 764.35 14.6658 764.353 14.6505 764.357M14.6961 764.346C13.9204 764.56 13.336 765.609 14.0477 766.125C14.5506 766.489 15.2932 766.155 15.2204 765.365M10.005 764.312C10.067 764.321 10.1305 764.332 10.1954 764.346M10.005 764.312C10.0693 764.317 10.133 764.329 10.1954 764.346M10.005 764.312C9.99174 764.311 9.97848 764.31 9.96518 764.309M10.1954 764.346C10.2105 764.35 10.2257 764.353 10.241 764.357M10.1954 764.346C10.9711 764.56 11.5555 765.609 10.8438 766.125C10.3409 766.489 9.5983 766.155 9.67107 765.365" stroke="#565656"/>
<path d="M12.4453 765.675C12.4453 765.179 12.4453 764.209 12.4453 764.294" stroke="#565656"/>
<path d="M123.562 696.561L123.562 760.318" stroke="#565656" stroke-linecap="square"/>
<path d="M123.501 693.537C124.034 693.537 124.46 693.966 124.46 694.487C124.46 695.007 124.034 695.436 123.501 695.436C122.967 695.436 122.541 695.007 122.541 694.487C122.541 693.966 122.967 693.537 123.501 693.537Z" stroke="#565656"/>
<path d="M120.264 681.834C122.31 683.926 123.037 685.383 123.563 688.502C124.09 685.383 124.817 683.926 126.863 681.834L123.563 676.154L120.264 681.834Z" stroke="#565656"/>
<path d="M121.658 676.908C122.737 678.483 122.991 678.861 123.562 680.814C124.006 679.05 124.514 678.357 125.529 676.782L123.562 673.317L121.658 676.908Z" stroke="#565656"/>
<path d="M121.12 692.635C118.953 692.944 118.538 690.033 119.919 689.015C120.636 688.486 121.458 688.38 122.235 688.689C122.701 688.874 123.062 689.307 123.243 689.709C123.423 690.111 123.558 690.921 123.562 691.398C123.567 690.921 123.699 690.111 123.88 689.709C124.06 689.307 124.421 688.874 124.887 688.689C125.664 688.38 126.486 688.486 127.203 689.015C128.584 690.033 128.169 692.944 126.002 692.635M121.12 692.635C121.182 692.627 121.246 692.615 121.311 692.601M121.12 692.635C121.185 692.63 121.248 692.618 121.311 692.601M121.12 692.635C121.107 692.637 121.094 692.638 121.081 692.638M121.311 692.601C121.326 692.598 121.341 692.594 121.356 692.591M121.311 692.601C122.086 692.388 122.671 691.338 121.959 690.823C121.456 690.458 120.714 690.792 120.786 691.582M126.002 692.635C125.94 692.627 125.876 692.615 125.811 692.601M126.002 692.635C125.938 692.63 125.874 692.618 125.811 692.601M126.002 692.635C126.015 692.637 126.028 692.638 126.042 692.638M125.811 692.601C125.796 692.598 125.781 692.594 125.766 692.591M125.811 692.601C125.036 692.388 124.451 691.338 125.163 690.823C125.666 690.458 126.409 690.792 126.336 691.582" stroke="#565656"/>
<path d="M123.562 691.272C123.562 691.768 123.562 692.738 123.562 692.653" stroke="#565656"/>
<path d="M123.623 763.41C123.09 763.41 122.664 762.981 122.664 762.461C122.664 761.94 123.09 761.512 123.623 761.512C124.157 761.512 124.583 761.94 124.583 762.461C124.583 762.981 124.157 763.41 123.623 763.41Z" stroke="#565656"/>
<path d="M126.86 775.115C124.814 773.023 124.087 771.566 123.561 768.447C123.034 771.566 122.307 773.023 120.261 775.115L123.561 780.796L126.86 775.115Z" stroke="#565656"/>
<path d="M125.465 780.037C124.386 778.462 124.132 778.084 123.561 776.131C123.117 777.895 122.609 778.588 121.594 780.163L123.561 783.628L125.465 780.037Z" stroke="#565656"/>
<path d="M126.001 764.312C128.168 764.003 128.583 766.914 127.202 767.933C126.485 768.461 125.663 768.567 124.886 768.259C124.42 768.074 124.059 767.641 123.878 767.239C123.698 766.836 123.563 766.027 123.559 765.549C123.554 766.027 123.422 766.836 123.242 767.239C123.061 767.641 122.7 768.074 122.234 768.259C121.457 768.567 120.635 768.461 119.918 767.933C118.537 766.914 118.952 764.003 121.119 764.312M126.001 764.312C125.939 764.321 125.875 764.332 125.81 764.346M126.001 764.312C125.936 764.317 125.873 764.329 125.81 764.346M126.001 764.312C126.014 764.311 126.027 764.31 126.041 764.309M125.81 764.346C125.795 764.35 125.78 764.353 125.765 764.357M125.81 764.346C125.035 764.56 124.45 765.609 125.162 766.125C125.665 766.489 126.407 766.155 126.335 765.365M121.119 764.312C121.181 764.321 121.245 764.332 121.31 764.346M121.119 764.312C121.184 764.317 121.247 764.329 121.31 764.346M121.119 764.312C121.106 764.311 121.093 764.31 121.079 764.309M121.31 764.346C121.325 764.35 121.34 764.353 121.355 764.357M121.31 764.346C122.085 764.56 122.67 765.609 121.958 766.125C121.455 766.489 120.713 766.155 120.785 765.365" stroke="#565656"/>
<path d="M123.56 765.675C123.56 765.179 123.56 764.209 123.56 764.294" stroke="#565656"/>
<path d="M100.041 673.414L35.8223 673.414" stroke="#565656" stroke-linecap="square"/>
<path d="M103.097 673.351C103.097 673.872 102.671 674.3 102.137 674.3C101.604 674.3 101.178 673.872 101.178 673.351C101.178 672.831 101.604 672.402 102.137 672.402C102.671 672.402 103.097 672.831 103.097 673.351Z" stroke="#565656"/>
<path d="M114.88 670.139C112.773 672.171 111.306 672.892 108.164 673.415C111.306 673.937 112.773 674.659 114.88 676.691L120.602 673.415L114.88 670.139Z" stroke="#565656"/>
<path d="M119.842 671.525C118.255 672.596 117.874 672.848 115.907 673.415C117.684 673.856 118.382 674.36 119.969 675.368L123.459 673.415L119.842 671.525Z" stroke="#565656"/>
<path d="M103.999 670.99C103.689 668.838 106.62 668.426 107.647 669.797C108.179 670.509 108.285 671.325 107.975 672.096C107.789 672.559 107.353 672.918 106.947 673.097C106.542 673.276 105.727 673.41 105.246 673.414C105.727 673.418 106.542 673.55 106.947 673.729C107.353 673.908 107.789 674.267 107.975 674.73C108.285 675.5 108.179 676.317 107.647 677.029C106.62 678.4 103.689 677.988 103.999 675.836M103.999 670.99C104.008 671.051 104.02 671.114 104.034 671.179M103.999 670.99C104.005 671.054 104.017 671.117 104.034 671.179M103.999 670.99C103.998 670.977 103.997 670.963 103.997 670.95M104.034 671.179C104.038 671.194 104.041 671.209 104.045 671.224M104.034 671.179C104.249 671.949 105.306 672.529 105.825 671.823C106.193 671.323 105.856 670.586 105.06 670.658M103.999 675.836C104.008 675.775 104.02 675.712 104.034 675.647M103.999 675.836C104.005 675.772 104.017 675.709 104.034 675.647M103.999 675.836C103.998 675.849 103.997 675.862 103.997 675.876M104.034 675.647C104.038 675.632 104.041 675.617 104.045 675.602M104.034 675.647C104.249 674.877 105.306 674.297 105.825 675.003C106.193 675.503 105.856 676.24 105.06 676.168" stroke="#565656"/>
<path d="M105.373 673.414C104.873 673.414 103.896 673.414 103.982 673.414" stroke="#565656"/>
<path d="M32.7069 673.475C32.7069 672.954 33.1331 672.526 33.6665 672.526C34.1998 672.526 34.626 672.954 34.626 673.475C34.626 673.996 34.1998 674.424 33.6665 674.424C33.1331 674.424 32.7069 673.996 32.7069 673.475Z" stroke="#565656"/>
<path d="M20.9204 676.689C23.0275 674.658 24.4953 673.936 27.6367 673.413C24.4953 672.891 23.0275 672.169 20.9204 670.137L15.199 673.413L20.9204 676.689Z" stroke="#565656"/>
<path d="M15.9602 675.303C17.5466 674.232 17.9273 673.98 19.8945 673.413C18.1177 672.972 17.4197 672.468 15.8332 671.46L12.3431 673.413L15.9602 675.303Z" stroke="#565656"/>
<path d="M31.8023 675.836C32.1129 677.988 29.1813 678.4 28.1552 677.029C27.6228 676.317 27.5163 675.501 27.8269 674.73C28.0132 674.267 28.4492 673.909 28.8544 673.729C29.2595 673.55 30.0749 673.417 30.556 673.412C30.0749 673.408 29.2595 673.276 28.8544 673.097C28.4492 672.918 28.0132 672.559 27.8269 672.097C27.5163 671.326 27.6228 670.509 28.1552 669.798C29.1813 668.426 32.1129 668.839 31.8023 670.99M31.8023 675.836C31.7934 675.775 31.7818 675.712 31.7675 675.647M31.8023 675.836C31.7966 675.773 31.7848 675.709 31.7675 675.647M31.8023 675.836C31.8034 675.85 31.8043 675.863 31.805 675.876M31.7675 675.647C31.7642 675.632 31.7607 675.617 31.757 675.602M31.7675 675.647C31.5528 674.877 30.4958 674.297 29.9763 675.004C29.6092 675.503 29.9455 676.24 30.7415 676.168M31.8023 670.99C31.7934 671.052 31.7818 671.115 31.7675 671.179M31.8023 670.99C31.7966 671.054 31.7848 671.117 31.7675 671.179M31.8023 670.99C31.8034 670.977 31.8043 670.964 31.805 670.95M31.7675 671.179C31.7642 671.194 31.7607 671.209 31.757 671.224M31.7675 671.179C31.5528 671.949 30.4958 672.529 29.9763 671.823C29.6092 671.324 29.9455 670.586 30.7415 670.658" stroke="#565656"/>
<path d="M30.4291 673.412C30.9284 673.412 31.9055 673.412 31.8199 673.412" stroke="#565656"/>
<path d="M100.041 784.594L35.8223 784.594" stroke="#565656" stroke-linecap="square"/>
<path d="M103.097 784.531C103.097 785.052 102.671 785.48 102.137 785.48C101.604 785.48 101.178 785.052 101.178 784.531C101.178 784.01 101.604 783.582 102.137 783.582C102.671 783.582 103.097 784.01 103.097 784.531Z" stroke="#565656"/>
<path d="M114.88 781.318C112.773 783.35 111.306 784.072 108.164 784.594C111.306 785.117 112.773 785.839 114.88 787.871L120.602 784.594L114.88 781.318Z" stroke="#565656"/>
<path d="M119.842 782.705C118.255 783.776 117.874 784.028 115.907 784.595C117.684 785.036 118.382 785.54 119.969 786.548L123.459 784.595L119.842 782.705Z" stroke="#565656"/>
<path d="M103.999 782.169C103.689 780.018 106.62 779.605 107.647 780.977C108.179 781.689 108.285 782.505 107.975 783.276C107.789 783.738 107.353 784.097 106.947 784.276C106.542 784.456 105.727 784.589 105.246 784.594C105.727 784.598 106.542 784.73 106.947 784.909C107.353 785.088 107.789 785.447 107.975 785.909C108.285 786.68 108.179 787.497 107.647 788.208C106.62 789.58 103.689 789.167 103.999 787.016M103.999 782.169C104.008 782.231 104.02 782.294 104.034 782.358M103.999 782.169C104.005 782.233 104.017 782.296 104.034 782.358M103.999 782.169C103.998 782.156 103.997 782.143 103.997 782.13M104.034 782.358C104.038 782.373 104.041 782.389 104.045 782.404M104.034 782.358C104.249 783.129 105.306 783.709 105.825 783.002C106.193 782.503 105.856 781.766 105.06 781.838M103.999 787.016C104.008 786.954 104.02 786.891 104.034 786.827M103.999 787.016C104.005 786.952 104.017 786.889 104.034 786.827M103.999 787.016C103.998 787.029 103.997 787.042 103.997 787.055M104.034 786.827C104.038 786.812 104.041 786.797 104.045 786.782M104.034 786.827C104.249 786.057 105.306 785.477 105.825 786.183C106.193 786.682 105.856 787.42 105.06 787.347" stroke="#565656"/>
<path d="M105.373 784.594C104.873 784.594 103.896 784.594 103.982 784.594" stroke="#565656"/>
<path d="M32.7069 784.654C32.7069 784.134 33.1331 783.705 33.6665 783.705C34.1998 783.705 34.626 784.134 34.626 784.654C34.626 785.175 34.1998 785.604 33.6665 785.604C33.1331 785.604 32.7069 785.175 32.7069 784.654Z" stroke="#565656"/>
<path d="M20.9204 787.869C23.0275 785.837 24.4953 785.116 27.6367 784.593C24.4953 784.071 23.0275 783.349 20.9204 781.317L15.199 784.593L20.9204 787.869Z" stroke="#565656"/>
<path d="M15.9602 786.482C17.5466 785.411 17.9273 785.159 19.8945 784.592C18.1177 784.151 17.4197 783.647 15.8332 782.639L12.3431 784.592L15.9602 786.482Z" stroke="#565656"/>
<path d="M31.8023 787.016C32.1129 789.168 29.1813 789.58 28.1552 788.209C27.6228 787.497 27.5163 786.68 27.8269 785.91C28.0132 785.447 28.4492 785.088 28.8544 784.909C29.2595 784.73 30.0749 784.596 30.556 784.592C30.0749 784.587 29.2595 784.456 28.8544 784.277C28.4492 784.098 28.0132 783.739 27.8269 783.276C27.5163 782.505 27.6228 781.689 28.1552 780.977C29.1813 779.606 32.1129 780.018 31.8023 782.17M31.8023 787.016C31.7934 786.955 31.7818 786.892 31.7675 786.827M31.8023 787.016C31.7966 786.952 31.7848 786.889 31.7675 786.827M31.8023 787.016C31.8034 787.029 31.8043 787.042 31.805 787.056M31.7675 786.827C31.7642 786.812 31.7607 786.797 31.757 786.782M31.7675 786.827C31.5528 786.057 30.4958 785.477 29.9763 786.183C29.6092 786.683 29.9455 787.42 30.7415 787.348M31.8023 782.17C31.7934 782.231 31.7818 782.294 31.7675 782.359M31.8023 782.17C31.7966 782.234 31.7848 782.297 31.7675 782.359M31.8023 782.17C31.8034 782.157 31.8043 782.143 31.805 782.13M31.7675 782.359C31.7642 782.374 31.7607 782.389 31.757 782.404M31.7675 782.359C31.5528 783.129 30.4958 783.709 29.9763 783.002C29.6092 782.503 29.9455 781.766 30.7415 781.838" stroke="#565656"/>
<path d="M30.4291 784.592C30.9284 784.592 31.9055 784.592 31.8199 784.592" stroke="#565656"/>
<rect x="136" y="664" width="128" height="128" rx="8" fill="#D9BC95"/>
<path d="M144.445 695.561L144.445 759.318" stroke="white" stroke-linecap="square"/>
<path d="M144.384 692.537C144.918 692.537 145.344 692.966 145.344 693.487C145.344 694.007 144.918 694.436 144.384 694.436C143.851 694.436 143.425 694.007 143.425 693.487C143.425 692.966 143.851 692.537 144.384 692.537Z" stroke="white"/>
<path d="M141.147 680.834C143.194 682.926 143.921 684.383 144.447 687.502C144.973 684.383 145.701 682.926 147.747 680.834L144.447 675.154L141.147 680.834Z" stroke="white"/>
<path d="M142.542 675.908C143.621 677.483 143.875 677.861 144.446 679.814C144.89 678.05 145.398 677.357 146.413 675.782L144.446 672.317L142.542 675.908Z" stroke="white"/>
<path d="M142.004 691.635C139.837 691.944 139.422 689.033 140.803 688.015C141.52 687.486 142.342 687.38 143.119 687.689C143.584 687.874 143.946 688.307 144.126 688.709C144.307 689.111 144.441 689.921 144.446 690.398C144.45 689.921 144.583 689.111 144.763 688.709C144.944 688.307 145.305 687.874 145.771 687.689C146.547 687.38 147.37 687.486 148.087 688.015C149.468 689.033 149.053 691.944 146.886 691.635M142.004 691.635C142.066 691.627 142.13 691.615 142.194 691.601M142.004 691.635C142.068 691.63 142.132 691.618 142.194 691.601M142.004 691.635C141.991 691.637 141.978 691.638 141.964 691.638M142.194 691.601C142.21 691.598 142.225 691.594 142.24 691.591M142.194 691.601C142.97 691.388 143.555 690.338 142.843 689.823C142.34 689.458 141.597 689.792 141.67 690.582M146.886 691.635C146.824 691.627 146.76 691.615 146.695 691.601M146.886 691.635C146.821 691.63 146.758 691.618 146.695 691.601M146.886 691.635C146.899 691.637 146.912 691.638 146.925 691.638M146.695 691.601C146.68 691.598 146.665 691.594 146.65 691.591M146.695 691.601C145.92 691.388 145.335 690.338 146.047 689.823C146.55 689.458 147.292 689.792 147.22 690.582" stroke="white"/>
<path d="M144.445 690.272C144.445 690.768 144.445 691.738 144.445 691.653" stroke="white"/>
<path d="M144.509 762.41C143.976 762.41 143.55 761.981 143.55 761.461C143.55 760.94 143.976 760.512 144.509 760.512C145.043 760.512 145.469 760.94 145.469 761.461C145.469 761.981 145.043 762.41 144.509 762.41Z" stroke="white"/>
<path d="M147.744 774.115C145.698 772.023 144.971 770.566 144.444 767.447C143.918 770.566 143.191 772.023 141.145 774.115L144.444 779.796L147.744 774.115Z" stroke="white"/>
<path d="M146.349 779.037C145.27 777.462 145.016 777.084 144.445 775.131C144.001 776.895 143.493 777.588 142.478 779.163L144.445 782.628L146.349 779.037Z" stroke="white"/>
<path d="M146.887 763.312C149.054 763.003 149.469 765.914 148.088 766.933C147.371 767.461 146.548 767.567 145.772 767.259C145.306 767.074 144.945 766.641 144.764 766.239C144.584 765.836 144.449 765.027 144.445 764.549C144.44 765.027 144.308 765.836 144.127 766.239C143.947 766.641 143.585 767.074 143.12 767.259C142.343 767.567 141.521 767.461 140.804 766.933C139.422 765.914 139.838 763.003 142.005 763.312M146.887 763.312C146.824 763.321 146.761 763.332 146.696 763.346M146.887 763.312C146.822 763.317 146.759 763.329 146.696 763.346M146.887 763.312C146.9 763.311 146.913 763.31 146.926 763.309M146.696 763.346C146.681 763.35 146.666 763.353 146.651 763.357M146.696 763.346C145.92 763.56 145.336 764.609 146.048 765.125C146.551 765.489 147.293 765.155 147.22 764.365M142.005 763.312C142.067 763.321 142.13 763.332 142.195 763.346M142.005 763.312C142.069 763.317 142.133 763.329 142.195 763.346M142.005 763.312C141.992 763.311 141.978 763.31 141.965 763.309M142.195 763.346C142.211 763.35 142.226 763.353 142.241 763.357M142.195 763.346C142.971 763.56 143.555 764.609 142.844 765.125C142.341 765.489 141.598 765.155 141.671 764.365" stroke="white"/>
<path d="M144.445 764.675C144.445 764.179 144.445 763.209 144.445 763.294" stroke="white"/>
<path d="M255.562 695.561L255.562 759.318" stroke="white" stroke-linecap="square"/>
<path d="M255.501 692.537C256.034 692.537 256.46 692.966 256.46 693.487C256.46 694.007 256.034 694.436 255.501 694.436C254.967 694.436 254.541 694.007 254.541 693.487C254.541 692.966 254.967 692.537 255.501 692.537Z" stroke="white"/>
<path d="M252.264 680.834C254.31 682.926 255.037 684.383 255.563 687.502C256.09 684.383 256.817 682.926 258.863 680.834L255.563 675.154L252.264 680.834Z" stroke="white"/>
<path d="M253.658 675.908C254.737 677.483 254.991 677.861 255.562 679.814C256.006 678.05 256.514 677.357 257.529 675.782L255.562 672.317L253.658 675.908Z" stroke="white"/>
<path d="M253.12 691.635C250.953 691.944 250.538 689.033 251.919 688.015C252.636 687.486 253.458 687.38 254.235 687.689C254.701 687.874 255.062 688.307 255.243 688.709C255.423 689.111 255.558 689.921 255.562 690.398C255.567 689.921 255.699 689.111 255.88 688.709C256.06 688.307 256.421 687.874 256.887 687.689C257.664 687.38 258.486 687.486 259.203 688.015C260.584 689.033 260.169 691.944 258.002 691.635M253.12 691.635C253.182 691.627 253.246 691.615 253.311 691.601M253.12 691.635C253.185 691.63 253.248 691.618 253.311 691.601M253.12 691.635C253.107 691.637 253.094 691.638 253.081 691.638M253.311 691.601C253.326 691.598 253.341 691.594 253.356 691.591M253.311 691.601C254.086 691.388 254.671 690.338 253.959 689.823C253.456 689.458 252.714 689.792 252.786 690.582M258.002 691.635C257.94 691.627 257.876 691.615 257.811 691.601M258.002 691.635C257.938 691.63 257.874 691.618 257.811 691.601M258.002 691.635C258.015 691.637 258.028 691.638 258.042 691.638M257.811 691.601C257.796 691.598 257.781 691.594 257.766 691.591M257.811 691.601C257.036 691.388 256.451 690.338 257.163 689.823C257.666 689.458 258.409 689.792 258.336 690.582" stroke="white"/>
<path d="M255.562 690.272C255.562 690.768 255.562 691.738 255.562 691.653" stroke="white"/>
<path d="M255.623 762.41C255.09 762.41 254.664 761.981 254.664 761.461C254.664 760.94 255.09 760.512 255.623 760.512C256.157 760.512 256.583 760.94 256.583 761.461C256.583 761.981 256.157 762.41 255.623 762.41Z" stroke="white"/>
<path d="M258.86 774.115C256.814 772.023 256.087 770.566 255.561 767.447C255.034 770.566 254.307 772.023 252.261 774.115L255.561 779.796L258.86 774.115Z" stroke="white"/>
<path d="M257.465 779.037C256.386 777.462 256.132 777.084 255.561 775.131C255.117 776.895 254.609 777.588 253.594 779.163L255.561 782.628L257.465 779.037Z" stroke="white"/>
<path d="M258.001 763.312C260.168 763.003 260.583 765.914 259.202 766.933C258.485 767.461 257.663 767.567 256.886 767.259C256.42 767.074 256.059 766.641 255.878 766.239C255.698 765.836 255.563 765.027 255.559 764.549C255.554 765.027 255.422 765.836 255.242 766.239C255.061 766.641 254.7 767.074 254.234 767.259C253.457 767.567 252.635 767.461 251.918 766.933C250.537 765.914 250.952 763.003 253.119 763.312M258.001 763.312C257.939 763.321 257.875 763.332 257.81 763.346M258.001 763.312C257.936 763.317 257.873 763.329 257.81 763.346M258.001 763.312C258.014 763.311 258.027 763.31 258.041 763.309M257.81 763.346C257.795 763.35 257.78 763.353 257.765 763.357M257.81 763.346C257.035 763.56 256.45 764.609 257.162 765.125C257.665 765.489 258.407 765.155 258.335 764.365M253.119 763.312C253.181 763.321 253.245 763.332 253.31 763.346M253.119 763.312C253.184 763.317 253.247 763.329 253.31 763.346M253.119 763.312C253.106 763.311 253.093 763.31 253.079 763.309M253.31 763.346C253.325 763.35 253.34 763.353 253.355 763.357M253.31 763.346C254.085 763.56 254.67 764.609 253.958 765.125C253.455 765.489 252.713 765.155 252.785 764.365" stroke="white"/>
<path d="M255.56 764.675C255.56 764.179 255.56 763.209 255.56 763.294" stroke="white"/>
<path d="M232.041 672.414L167.822 672.414" stroke="white" stroke-linecap="square"/>
<path d="M235.097 672.351C235.097 672.872 234.671 673.3 234.137 673.3C233.604 673.3 233.178 672.872 233.178 672.351C233.178 671.831 233.604 671.402 234.137 671.402C234.671 671.402 235.097 671.831 235.097 672.351Z" stroke="white"/>
<path d="M246.88 669.139C244.773 671.171 243.306 671.892 240.164 672.415C243.306 672.937 244.773 673.659 246.88 675.691L252.602 672.415L246.88 669.139Z" stroke="white"/>
<path d="M251.842 670.525C250.255 671.596 249.874 671.848 247.907 672.415C249.684 672.856 250.382 673.36 251.969 674.368L255.459 672.415L251.842 670.525Z" stroke="white"/>
<path d="M235.999 669.99C235.689 667.838 238.62 667.426 239.647 668.797C240.179 669.509 240.285 670.325 239.975 671.096C239.789 671.559 239.353 671.918 238.947 672.097C238.542 672.276 237.727 672.41 237.246 672.414C237.727 672.418 238.542 672.55 238.947 672.729C239.353 672.908 239.789 673.267 239.975 673.73C240.285 674.5 240.179 675.317 239.647 676.029C238.62 677.4 235.689 676.988 235.999 674.836M235.999 669.99C236.008 670.051 236.02 670.114 236.034 670.179M235.999 669.99C236.005 670.054 236.017 670.117 236.034 670.179M235.999 669.99C235.998 669.977 235.997 669.963 235.997 669.95M236.034 670.179C236.038 670.194 236.041 670.209 236.045 670.224M236.034 670.179C236.249 670.949 237.306 671.529 237.825 670.823C238.193 670.323 237.856 669.586 237.06 669.658M235.999 674.836C236.008 674.775 236.02 674.712 236.034 674.647M235.999 674.836C236.005 674.772 236.017 674.709 236.034 674.647M235.999 674.836C235.998 674.849 235.997 674.862 235.997 674.876M236.034 674.647C236.038 674.632 236.041 674.617 236.045 674.602M236.034 674.647C236.249 673.877 237.306 673.297 237.825 674.003C238.193 674.503 237.856 675.24 237.06 675.168" stroke="white"/>
<path d="M237.373 672.414C236.873 672.414 235.896 672.414 235.982 672.414" stroke="white"/>
<path d="M164.707 672.475C164.707 671.954 165.133 671.526 165.666 671.526C166.2 671.526 166.626 671.954 166.626 672.475C166.626 672.996 166.2 673.424 165.666 673.424C165.133 673.424 164.707 672.996 164.707 672.475Z" stroke="white"/>
<path d="M152.92 675.689C155.028 673.658 156.495 672.936 159.637 672.413C156.495 671.891 155.028 671.169 152.92 669.137L147.199 672.413L152.92 675.689Z" stroke="white"/>
<path d="M147.96 674.303C149.547 673.232 149.927 672.98 151.895 672.413C150.118 671.972 149.42 671.468 147.833 670.46L144.343 672.413L147.96 674.303Z" stroke="white"/>
<path d="M163.802 674.836C164.113 676.988 161.181 677.4 160.155 676.029C159.623 675.317 159.516 674.501 159.827 673.73C160.013 673.267 160.449 672.909 160.854 672.729C161.259 672.55 162.075 672.417 162.556 672.412C162.075 672.408 161.259 672.276 160.854 672.097C160.449 671.918 160.013 671.559 159.827 671.097C159.516 670.326 159.623 669.509 160.155 668.798C161.181 667.426 164.113 667.839 163.802 669.99M163.802 674.836C163.793 674.775 163.782 674.712 163.768 674.647M163.802 674.836C163.797 674.773 163.785 674.709 163.768 674.647M163.802 674.836C163.803 674.85 163.804 674.863 163.805 674.876M163.768 674.647C163.764 674.632 163.761 674.617 163.757 674.602M163.768 674.647C163.553 673.877 162.496 673.297 161.976 674.004C161.609 674.503 161.945 675.24 162.741 675.168M163.802 669.99C163.793 670.052 163.782 670.115 163.768 670.179M163.802 669.99C163.797 670.054 163.785 670.117 163.768 670.179M163.802 669.99C163.803 669.977 163.804 669.964 163.805 669.95M163.768 670.179C163.764 670.194 163.761 670.209 163.757 670.224M163.768 670.179C163.553 670.949 162.496 671.529 161.976 670.823C161.609 670.324 161.945 669.586 162.741 669.658" stroke="white"/>
<path d="M162.429 672.412C162.928 672.412 163.906 672.412 163.82 672.412" stroke="white"/>
<path d="M232.041 783.594L167.822 783.594" stroke="white" stroke-linecap="square"/>
<path d="M235.097 783.531C235.097 784.052 234.671 784.48 234.137 784.48C233.604 784.48 233.178 784.052 233.178 783.531C233.178 783.01 233.604 782.582 234.137 782.582C234.671 782.582 235.097 783.01 235.097 783.531Z" stroke="white"/>
<path d="M246.88 780.318C244.773 782.35 243.306 783.072 240.164 783.594C243.306 784.117 244.773 784.839 246.88 786.871L252.602 783.594L246.88 780.318Z" stroke="white"/>
<path d="M251.842 781.705C250.255 782.776 249.874 783.028 247.907 783.595C249.684 784.036 250.382 784.54 251.969 785.548L255.459 783.595L251.842 781.705Z" stroke="white"/>
<path d="M235.999 781.169C235.689 779.018 238.62 778.605 239.647 779.977C240.179 780.689 240.285 781.505 239.975 782.276C239.789 782.738 239.353 783.097 238.947 783.276C238.542 783.456 237.727 783.589 237.246 783.594C237.727 783.598 238.542 783.73 238.947 783.909C239.353 784.088 239.789 784.447 239.975 784.909C240.285 785.68 240.179 786.497 239.647 787.208C238.62 788.58 235.689 788.167 235.999 786.016M235.999 781.169C236.008 781.231 236.02 781.294 236.034 781.358M235.999 781.169C236.005 781.233 236.017 781.296 236.034 781.358M235.999 781.169C235.998 781.156 235.997 781.143 235.997 781.13M236.034 781.358C236.038 781.373 236.041 781.389 236.045 781.404M236.034 781.358C236.249 782.129 237.306 782.709 237.825 782.002C238.193 781.503 237.856 780.766 237.06 780.838M235.999 786.016C236.008 785.954 236.02 785.891 236.034 785.827M235.999 786.016C236.005 785.952 236.017 785.889 236.034 785.827M235.999 786.016C235.998 786.029 235.997 786.042 235.997 786.055M236.034 785.827C236.038 785.812 236.041 785.797 236.045 785.782M236.034 785.827C236.249 785.057 237.306 784.477 237.825 785.183C238.193 785.682 237.856 786.42 237.06 786.347" stroke="white"/>
<path d="M237.373 783.594C236.873 783.594 235.896 783.594 235.982 783.594" stroke="white"/>
<path d="M164.707 783.654C164.707 783.134 165.133 782.705 165.666 782.705C166.2 782.705 166.626 783.134 166.626 783.654C166.626 784.175 166.2 784.604 165.666 784.604C165.133 784.604 164.707 784.175 164.707 783.654Z" stroke="white"/>
<path d="M152.92 786.869C155.028 784.837 156.495 784.116 159.637 783.593C156.495 783.071 155.028 782.349 152.92 780.317L147.199 783.593L152.92 786.869Z" stroke="white"/>
<path d="M147.96 785.482C149.547 784.411 149.927 784.159 151.895 783.592C150.118 783.151 149.42 782.647 147.833 781.639L144.343 783.592L147.96 785.482Z" stroke="white"/>
<path d="M163.802 786.016C164.113 788.168 161.181 788.58 160.155 787.209C159.623 786.497 159.516 785.68 159.827 784.91C160.013 784.447 160.449 784.088 160.854 783.909C161.259 783.73 162.075 783.596 162.556 783.592C162.075 783.587 161.259 783.456 160.854 783.277C160.449 783.098 160.013 782.739 159.827 782.276C159.516 781.505 159.623 780.689 160.155 779.977C161.181 778.606 164.113 779.018 163.802 781.17M163.802 786.016C163.793 785.955 163.782 785.892 163.768 785.827M163.802 786.016C163.797 785.952 163.785 785.889 163.768 785.827M163.802 786.016C163.803 786.029 163.804 786.042 163.805 786.056M163.768 785.827C163.764 785.812 163.761 785.797 163.757 785.782M163.768 785.827C163.553 785.057 162.496 784.477 161.976 785.183C161.609 785.683 161.945 786.42 162.741 786.348M163.802 781.17C163.793 781.231 163.782 781.294 163.768 781.359M163.802 781.17C163.797 781.234 163.785 781.297 163.768 781.359M163.802 781.17C163.803 781.157 163.804 781.143 163.805 781.13M163.768 781.359C163.764 781.374 163.761 781.389 163.757 781.404M163.768 781.359C163.553 782.129 162.496 782.709 161.976 782.002C161.609 781.503 161.945 780.766 162.741 780.838" stroke="white"/>
<path d="M162.429 783.592C162.928 783.592 163.906 783.592 163.82 783.592" stroke="white"/>
<rect x="268" y="664" width="128" height="128" rx="8" fill="#565656"/>
<path d="M276.445 695.561L276.445 759.318" stroke="white" stroke-linecap="square"/>
<path d="M276.384 692.537C276.918 692.537 277.344 692.966 277.344 693.487C277.344 694.007 276.918 694.436 276.384 694.436C275.851 694.436 275.425 694.007 275.425 693.487C275.425 692.966 275.851 692.537 276.384 692.537Z" stroke="white"/>
<path d="M273.147 680.834C275.194 682.926 275.921 684.383 276.447 687.502C276.973 684.383 277.701 682.926 279.747 680.834L276.447 675.154L273.147 680.834Z" stroke="white"/>
<path d="M274.542 675.908C275.621 677.483 275.875 677.861 276.446 679.814C276.89 678.05 277.398 677.357 278.413 675.782L276.446 672.317L274.542 675.908Z" stroke="white"/>
<path d="M274.004 691.635C271.837 691.944 271.422 689.033 272.803 688.015C273.52 687.486 274.342 687.38 275.119 687.689C275.584 687.874 275.946 688.307 276.126 688.709C276.307 689.111 276.441 689.921 276.446 690.398C276.45 689.921 276.583 689.111 276.763 688.709C276.944 688.307 277.305 687.874 277.771 687.689C278.547 687.38 279.37 687.486 280.087 688.015C281.468 689.033 281.053 691.944 278.886 691.635M274.004 691.635C274.066 691.627 274.13 691.615 274.194 691.601M274.004 691.635C274.068 691.63 274.132 691.618 274.194 691.601M274.004 691.635C273.991 691.637 273.978 691.638 273.964 691.638M274.194 691.601C274.21 691.598 274.225 691.594 274.24 691.591M274.194 691.601C274.97 691.388 275.555 690.338 274.843 689.823C274.34 689.458 273.597 689.792 273.67 690.582M278.886 691.635C278.824 691.627 278.76 691.615 278.695 691.601M278.886 691.635C278.821 691.63 278.758 691.618 278.695 691.601M278.886 691.635C278.899 691.637 278.912 691.638 278.925 691.638M278.695 691.601C278.68 691.598 278.665 691.594 278.65 691.591M278.695 691.601C277.92 691.388 277.335 690.338 278.047 689.823C278.55 689.458 279.292 689.792 279.22 690.582" stroke="white"/>
<path d="M276.445 690.272C276.445 690.768 276.445 691.738 276.445 691.653" stroke="white"/>
<path d="M276.509 762.41C275.976 762.41 275.55 761.981 275.55 761.461C275.55 760.94 275.976 760.512 276.509 760.512C277.043 760.512 277.469 760.94 277.469 761.461C277.469 761.981 277.043 762.41 276.509 762.41Z" stroke="white"/>
<path d="M279.744 774.115C277.698 772.023 276.971 770.566 276.444 767.447C275.918 770.566 275.191 772.023 273.145 774.115L276.444 779.796L279.744 774.115Z" stroke="white"/>
<path d="M278.349 779.037C277.27 777.462 277.016 777.084 276.445 775.131C276.001 776.895 275.493 777.588 274.478 779.163L276.445 782.628L278.349 779.037Z" stroke="white"/>
<path d="M278.887 763.312C281.054 763.003 281.469 765.914 280.088 766.933C279.371 767.461 278.548 767.567 277.772 767.259C277.306 767.074 276.945 766.641 276.764 766.239C276.584 765.836 276.449 765.027 276.445 764.549C276.44 765.027 276.308 765.836 276.127 766.239C275.947 766.641 275.585 767.074 275.12 767.259C274.343 767.567 273.521 767.461 272.804 766.933C271.422 765.914 271.838 763.003 274.005 763.312M278.887 763.312C278.824 763.321 278.761 763.332 278.696 763.346M278.887 763.312C278.822 763.317 278.759 763.329 278.696 763.346M278.887 763.312C278.9 763.311 278.913 763.31 278.926 763.309M278.696 763.346C278.681 763.35 278.666 763.353 278.651 763.357M278.696 763.346C277.92 763.56 277.336 764.609 278.048 765.125C278.551 765.489 279.293 765.155 279.22 764.365M274.005 763.312C274.067 763.321 274.13 763.332 274.195 763.346M274.005 763.312C274.069 763.317 274.133 763.329 274.195 763.346M274.005 763.312C273.992 763.311 273.978 763.31 273.965 763.309M274.195 763.346C274.211 763.35 274.226 763.353 274.241 763.357M274.195 763.346C274.971 763.56 275.555 764.609 274.844 765.125C274.341 765.489 273.598 765.155 273.671 764.365" stroke="white"/>
<path d="M276.445 764.675C276.445 764.179 276.445 763.209 276.445 763.294" stroke="white"/>
<path d="M387.562 695.561L387.562 759.318" stroke="white" stroke-linecap="square"/>
<path d="M387.501 692.537C388.034 692.537 388.46 692.966 388.46 693.487C388.46 694.007 388.034 694.436 387.501 694.436C386.967 694.436 386.541 694.007 386.541 693.487C386.541 692.966 386.967 692.537 387.501 692.537Z" stroke="white"/>
<path d="M384.264 680.834C386.31 682.926 387.037 684.383 387.563 687.502C388.09 684.383 388.817 682.926 390.863 680.834L387.563 675.154L384.264 680.834Z" stroke="white"/>
<path d="M385.658 675.908C386.737 677.483 386.991 677.861 387.562 679.814C388.006 678.05 388.514 677.357 389.529 675.782L387.562 672.317L385.658 675.908Z" stroke="white"/>
<path d="M385.12 691.635C382.953 691.944 382.538 689.033 383.919 688.015C384.636 687.486 385.458 687.38 386.235 687.689C386.701 687.874 387.062 688.307 387.243 688.709C387.423 689.111 387.558 689.921 387.562 690.398C387.567 689.921 387.699 689.111 387.88 688.709C388.06 688.307 388.421 687.874 388.887 687.689C389.664 687.38 390.486 687.486 391.203 688.015C392.584 689.033 392.169 691.944 390.002 691.635M385.12 691.635C385.182 691.627 385.246 691.615 385.311 691.601M385.12 691.635C385.185 691.63 385.248 691.618 385.311 691.601M385.12 691.635C385.107 691.637 385.094 691.638 385.081 691.638M385.311 691.601C385.326 691.598 385.341 691.594 385.356 691.591M385.311 691.601C386.086 691.388 386.671 690.338 385.959 689.823C385.456 689.458 384.714 689.792 384.786 690.582M390.002 691.635C389.94 691.627 389.876 691.615 389.811 691.601M390.002 691.635C389.938 691.63 389.874 691.618 389.811 691.601M390.002 691.635C390.015 691.637 390.028 691.638 390.042 691.638M389.811 691.601C389.796 691.598 389.781 691.594 389.766 691.591M389.811 691.601C389.036 691.388 388.451 690.338 389.163 689.823C389.666 689.458 390.409 689.792 390.336 690.582" stroke="white"/>
<path d="M387.562 690.272C387.562 690.768 387.562 691.738 387.562 691.653" stroke="white"/>
<path d="M387.623 762.41C387.09 762.41 386.664 761.981 386.664 761.461C386.664 760.94 387.09 760.512 387.623 760.512C388.157 760.512 388.583 760.94 388.583 761.461C388.583 761.981 388.157 762.41 387.623 762.41Z" stroke="white"/>
<path d="M390.86 774.115C388.814 772.023 388.087 770.566 387.561 767.447C387.034 770.566 386.307 772.023 384.261 774.115L387.561 779.796L390.86 774.115Z" stroke="white"/>
<path d="M389.465 779.037C388.386 777.462 388.132 777.084 387.561 775.131C387.117 776.895 386.609 777.588 385.594 779.163L387.561 782.628L389.465 779.037Z" stroke="white"/>
<path d="M390.001 763.312C392.168 763.003 392.583 765.914 391.202 766.933C390.485 767.461 389.663 767.567 388.886 767.259C388.42 767.074 388.059 766.641 387.878 766.239C387.698 765.836 387.563 765.027 387.559 764.549C387.554 765.027 387.422 765.836 387.242 766.239C387.061 766.641 386.7 767.074 386.234 767.259C385.457 767.567 384.635 767.461 383.918 766.933C382.537 765.914 382.952 763.003 385.119 763.312M390.001 763.312C389.939 763.321 389.875 763.332 389.81 763.346M390.001 763.312C389.936 763.317 389.873 763.329 389.81 763.346M390.001 763.312C390.014 763.311 390.027 763.31 390.041 763.309M389.81 763.346C389.795 763.35 389.78 763.353 389.765 763.357M389.81 763.346C389.035 763.56 388.45 764.609 389.162 765.125C389.665 765.489 390.407 765.155 390.335 764.365M385.119 763.312C385.181 763.321 385.245 763.332 385.31 763.346M385.119 763.312C385.184 763.317 385.247 763.329 385.31 763.346M385.119 763.312C385.106 763.311 385.093 763.31 385.079 763.309M385.31 763.346C385.325 763.35 385.34 763.353 385.355 763.357M385.31 763.346C386.085 763.56 386.67 764.609 385.958 765.125C385.455 765.489 384.713 765.155 384.785 764.365" stroke="white"/>
<path d="M387.56 764.675C387.56 764.179 387.56 763.209 387.56 763.294" stroke="white"/>
<path d="M364.041 672.414L299.822 672.414" stroke="white" stroke-linecap="square"/>
<path d="M367.097 672.351C367.097 672.872 366.671 673.3 366.137 673.3C365.604 673.3 365.178 672.872 365.178 672.351C365.178 671.831 365.604 671.402 366.137 671.402C366.671 671.402 367.097 671.831 367.097 672.351Z" stroke="white"/>
<path d="M378.88 669.139C376.773 671.171 375.306 671.892 372.164 672.415C375.306 672.937 376.773 673.659 378.88 675.691L384.602 672.415L378.88 669.139Z" stroke="white"/>
<path d="M383.842 670.525C382.255 671.596 381.874 671.848 379.907 672.415C381.684 672.856 382.382 673.36 383.969 674.368L387.459 672.415L383.842 670.525Z" stroke="white"/>
<path d="M367.999 669.99C367.689 667.838 370.62 667.426 371.647 668.797C372.179 669.509 372.285 670.325 371.975 671.096C371.789 671.559 371.353 671.918 370.947 672.097C370.542 672.276 369.727 672.41 369.246 672.414C369.727 672.418 370.542 672.55 370.947 672.729C371.353 672.908 371.789 673.267 371.975 673.73C372.285 674.5 372.179 675.317 371.647 676.029C370.62 677.4 367.689 676.988 367.999 674.836M367.999 669.99C368.008 670.051 368.02 670.114 368.034 670.179M367.999 669.99C368.005 670.054 368.017 670.117 368.034 670.179M367.999 669.99C367.998 669.977 367.997 669.963 367.997 669.95M368.034 670.179C368.038 670.194 368.041 670.209 368.045 670.224M368.034 670.179C368.249 670.949 369.306 671.529 369.825 670.823C370.193 670.323 369.856 669.586 369.06 669.658M367.999 674.836C368.008 674.775 368.02 674.712 368.034 674.647M367.999 674.836C368.005 674.772 368.017 674.709 368.034 674.647M367.999 674.836C367.998 674.849 367.997 674.862 367.997 674.876M368.034 674.647C368.038 674.632 368.041 674.617 368.045 674.602M368.034 674.647C368.249 673.877 369.306 673.297 369.825 674.003C370.193 674.503 369.856 675.24 369.06 675.168" stroke="white"/>
<path d="M369.373 672.414C368.873 672.414 367.896 672.414 367.982 672.414" stroke="white"/>
<path d="M296.707 672.475C296.707 671.954 297.133 671.526 297.666 671.526C298.2 671.526 298.626 671.954 298.626 672.475C298.626 672.996 298.2 673.424 297.666 673.424C297.133 673.424 296.707 672.996 296.707 672.475Z" stroke="white"/>
<path d="M284.92 675.689C287.028 673.658 288.495 672.936 291.637 672.413C288.495 671.891 287.028 671.169 284.92 669.137L279.199 672.413L284.92 675.689Z" stroke="white"/>
<path d="M279.96 674.303C281.547 673.232 281.927 672.98 283.895 672.413C282.118 671.972 281.42 671.468 279.833 670.46L276.343 672.413L279.96 674.303Z" stroke="white"/>
<path d="M295.802 674.836C296.113 676.988 293.181 677.4 292.155 676.029C291.623 675.317 291.516 674.501 291.827 673.73C292.013 673.267 292.449 672.909 292.854 672.729C293.259 672.55 294.075 672.417 294.556 672.412C294.075 672.408 293.259 672.276 292.854 672.097C292.449 671.918 292.013 671.559 291.827 671.097C291.516 670.326 291.623 669.509 292.155 668.798C293.181 667.426 296.113 667.839 295.802 669.99M295.802 674.836C295.793 674.775 295.782 674.712 295.768 674.647M295.802 674.836C295.797 674.773 295.785 674.709 295.768 674.647M295.802 674.836C295.803 674.85 295.804 674.863 295.805 674.876M295.768 674.647C295.764 674.632 295.761 674.617 295.757 674.602M295.768 674.647C295.553 673.877 294.496 673.297 293.976 674.004C293.609 674.503 293.945 675.24 294.741 675.168M295.802 669.99C295.793 670.052 295.782 670.115 295.768 670.179M295.802 669.99C295.797 670.054 295.785 670.117 295.768 670.179M295.802 669.99C295.803 669.977 295.804 669.964 295.805 669.95M295.768 670.179C295.764 670.194 295.761 670.209 295.757 670.224M295.768 670.179C295.553 670.949 294.496 671.529 293.976 670.823C293.609 670.324 293.945 669.586 294.741 669.658" stroke="white"/>
<path d="M294.429 672.412C294.928 672.412 295.906 672.412 295.82 672.412" stroke="white"/>
<path d="M364.041 783.594L299.822 783.594" stroke="white" stroke-linecap="square"/>
<path d="M367.097 783.531C367.097 784.052 366.671 784.48 366.137 784.48C365.604 784.48 365.178 784.052 365.178 783.531C365.178 783.01 365.604 782.582 366.137 782.582C366.671 782.582 367.097 783.01 367.097 783.531Z" stroke="white"/>
<path d="M378.88 780.318C376.773 782.35 375.306 783.072 372.164 783.594C375.306 784.117 376.773 784.839 378.88 786.871L384.602 783.594L378.88 780.318Z" stroke="white"/>
<path d="M383.842 781.705C382.255 782.776 381.874 783.028 379.907 783.595C381.684 784.036 382.382 784.54 383.969 785.548L387.459 783.595L383.842 781.705Z" stroke="white"/>
<path d="M367.999 781.169C367.689 779.018 370.62 778.605 371.647 779.977C372.179 780.689 372.285 781.505 371.975 782.276C371.789 782.738 371.353 783.097 370.947 783.276C370.542 783.456 369.727 783.589 369.246 783.594C369.727 783.598 370.542 783.73 370.947 783.909C371.353 784.088 371.789 784.447 371.975 784.909C372.285 785.68 372.179 786.497 371.647 787.208C370.62 788.58 367.689 788.167 367.999 786.016M367.999 781.169C368.008 781.231 368.02 781.294 368.034 781.358M367.999 781.169C368.005 781.233 368.017 781.296 368.034 781.358M367.999 781.169C367.998 781.156 367.997 781.143 367.997 781.13M368.034 781.358C368.038 781.373 368.041 781.389 368.045 781.404M368.034 781.358C368.249 782.129 369.306 782.709 369.825 782.002C370.193 781.503 369.856 780.766 369.06 780.838M367.999 786.016C368.008 785.954 368.02 785.891 368.034 785.827M367.999 786.016C368.005 785.952 368.017 785.889 368.034 785.827M367.999 786.016C367.998 786.029 367.997 786.042 367.997 786.055M368.034 785.827C368.038 785.812 368.041 785.797 368.045 785.782M368.034 785.827C368.249 785.057 369.306 784.477 369.825 785.183C370.193 785.682 369.856 786.42 369.06 786.347" stroke="white"/>
<path d="M369.373 783.594C368.873 783.594 367.896 783.594 367.982 783.594" stroke="white"/>
<path d="M296.707 783.654C296.707 783.134 297.133 782.705 297.666 782.705C298.2 782.705 298.626 783.134 298.626 783.654C298.626 784.175 298.2 784.604 297.666 784.604C297.133 784.604 296.707 784.175 296.707 783.654Z" stroke="white"/>
<path d="M284.92 786.869C287.028 784.837 288.495 784.116 291.637 783.593C288.495 783.071 287.028 782.349 284.92 780.317L279.199 783.593L284.92 786.869Z" stroke="white"/>
<path d="M279.96 785.482C281.547 784.411 281.927 784.159 283.895 783.592C282.118 783.151 281.42 782.647 279.833 781.639L276.343 783.592L279.96 785.482Z" stroke="white"/>
<path d="M295.802 786.016C296.113 788.168 293.181 788.58 292.155 787.209C291.623 786.497 291.516 785.68 291.827 784.91C292.013 784.447 292.449 784.088 292.854 783.909C293.259 783.73 294.075 783.596 294.556 783.592C294.075 783.587 293.259 783.456 292.854 783.277C292.449 783.098 292.013 782.739 291.827 782.276C291.516 781.505 291.623 780.689 292.155 779.977C293.181 778.606 296.113 779.018 295.802 781.17M295.802 786.016C295.793 785.955 295.782 785.892 295.768 785.827M295.802 786.016C295.797 785.952 295.785 785.889 295.768 785.827M295.802 786.016C295.803 786.029 295.804 786.042 295.805 786.056M295.768 785.827C295.764 785.812 295.761 785.797 295.757 785.782M295.768 785.827C295.553 785.057 294.496 784.477 293.976 785.183C293.609 785.683 293.945 786.42 294.741 786.348M295.802 781.17C295.793 781.231 295.782 781.294 295.768 781.359M295.802 781.17C295.797 781.234 295.785 781.297 295.768 781.359M295.802 781.17C295.803 781.157 295.804 781.143 295.805 781.13M295.768 781.359C295.764 781.374 295.761 781.389 295.757 781.404M295.768 781.359C295.553 782.129 294.496 782.709 293.976 782.002C293.609 781.503 293.945 780.766 294.741 780.838" stroke="white"/>
<path d="M294.429 783.592C294.928 783.592 295.906 783.592 295.82 783.592" stroke="white"/>
<rect x="400" y="664" width="128" height="128" rx="8" fill="white"/>
<path d="M408.445 695.561L408.445 759.318" stroke="#565656" stroke-linecap="square"/>
<path d="M408.384 692.537C408.918 692.537 409.344 692.966 409.344 693.487C409.344 694.007 408.918 694.436 408.384 694.436C407.851 694.436 407.425 694.007 407.425 693.487C407.425 692.966 407.851 692.537 408.384 692.537Z" stroke="#565656"/>
<path d="M405.147 680.834C407.194 682.926 407.921 684.383 408.447 687.502C408.973 684.383 409.701 682.926 411.747 680.834L408.447 675.154L405.147 680.834Z" stroke="#565656"/>
<path d="M406.542 675.908C407.621 677.483 407.875 677.861 408.446 679.814C408.89 678.05 409.398 677.357 410.413 675.782L408.446 672.317L406.542 675.908Z" stroke="#565656"/>
<path d="M406.004 691.635C403.837 691.944 403.422 689.033 404.803 688.015C405.52 687.486 406.342 687.38 407.119 687.689C407.584 687.874 407.946 688.307 408.126 688.709C408.307 689.111 408.441 689.921 408.446 690.398C408.45 689.921 408.583 689.111 408.763 688.709C408.944 688.307 409.305 687.874 409.771 687.689C410.547 687.38 411.37 687.486 412.087 688.015C413.468 689.033 413.053 691.944 410.886 691.635M406.004 691.635C406.066 691.627 406.13 691.615 406.194 691.601M406.004 691.635C406.068 691.63 406.132 691.618 406.194 691.601M406.004 691.635C405.991 691.637 405.978 691.638 405.964 691.638M406.194 691.601C406.21 691.598 406.225 691.594 406.24 691.591M406.194 691.601C406.97 691.388 407.555 690.338 406.843 689.823C406.34 689.458 405.597 689.792 405.67 690.582M410.886 691.635C410.824 691.627 410.76 691.615 410.695 691.601M410.886 691.635C410.821 691.63 410.758 691.618 410.695 691.601M410.886 691.635C410.899 691.637 410.912 691.638 410.925 691.638M410.695 691.601C410.68 691.598 410.665 691.594 410.65 691.591M410.695 691.601C409.92 691.388 409.335 690.338 410.047 689.823C410.55 689.458 411.292 689.792 411.22 690.582" stroke="#565656"/>
<path d="M408.445 690.272C408.445 690.768 408.445 691.738 408.445 691.653" stroke="#565656"/>
<path d="M408.509 762.41C407.976 762.41 407.55 761.981 407.55 761.461C407.55 760.94 407.976 760.512 408.509 760.512C409.043 760.512 409.469 760.94 409.469 761.461C409.469 761.981 409.043 762.41 408.509 762.41Z" stroke="#565656"/>
<path d="M411.744 774.115C409.698 772.023 408.971 770.566 408.444 767.447C407.918 770.566 407.191 772.023 405.145 774.115L408.444 779.796L411.744 774.115Z" stroke="#565656"/>
<path d="M410.349 779.037C409.27 777.462 409.016 777.084 408.445 775.131C408.001 776.895 407.493 777.588 406.478 779.163L408.445 782.628L410.349 779.037Z" stroke="#565656"/>
<path d="M410.887 763.312C413.054 763.003 413.469 765.914 412.088 766.933C411.371 767.461 410.548 767.567 409.772 767.259C409.306 767.074 408.945 766.641 408.764 766.239C408.584 765.836 408.449 765.027 408.445 764.549C408.44 765.027 408.308 765.836 408.127 766.239C407.947 766.641 407.585 767.074 407.12 767.259C406.343 767.567 405.521 767.461 404.804 766.933C403.422 765.914 403.838 763.003 406.005 763.312M410.887 763.312C410.824 763.321 410.761 763.332 410.696 763.346M410.887 763.312C410.822 763.317 410.759 763.329 410.696 763.346M410.887 763.312C410.9 763.311 410.913 763.31 410.926 763.309M410.696 763.346C410.681 763.35 410.666 763.353 410.651 763.357M410.696 763.346C409.92 763.56 409.336 764.609 410.048 765.125C410.551 765.489 411.293 765.155 411.22 764.365M406.005 763.312C406.067 763.321 406.13 763.332 406.195 763.346M406.005 763.312C406.069 763.317 406.133 763.329 406.195 763.346M406.005 763.312C405.992 763.311 405.978 763.31 405.965 763.309M406.195 763.346C406.211 763.35 406.226 763.353 406.241 763.357M406.195 763.346C406.971 763.56 407.555 764.609 406.844 765.125C406.341 765.489 405.598 765.155 405.671 764.365" stroke="#565656"/>
<path d="M408.445 764.675C408.445 764.179 408.445 763.209 408.445 763.294" stroke="#565656"/>
<path d="M519.562 695.561L519.562 759.318" stroke="#565656" stroke-linecap="square"/>
<path d="M519.501 692.537C520.034 692.537 520.46 692.966 520.46 693.487C520.46 694.007 520.034 694.436 519.501 694.436C518.967 694.436 518.541 694.007 518.541 693.487C518.541 692.966 518.967 692.537 519.501 692.537Z" stroke="#565656"/>
<path d="M516.264 680.834C518.31 682.926 519.037 684.383 519.563 687.502C520.09 684.383 520.817 682.926 522.863 680.834L519.563 675.154L516.264 680.834Z" stroke="#565656"/>
<path d="M517.658 675.908C518.737 677.483 518.991 677.861 519.562 679.814C520.006 678.05 520.514 677.357 521.529 675.782L519.562 672.317L517.658 675.908Z" stroke="#565656"/>
<path d="M517.12 691.635C514.953 691.944 514.538 689.033 515.919 688.015C516.636 687.486 517.458 687.38 518.235 687.689C518.701 687.874 519.062 688.307 519.243 688.709C519.423 689.111 519.558 689.921 519.562 690.398C519.567 689.921 519.699 689.111 519.88 688.709C520.06 688.307 520.421 687.874 520.887 687.689C521.664 687.38 522.486 687.486 523.203 688.015C524.584 689.033 524.169 691.944 522.002 691.635M517.12 691.635C517.182 691.627 517.246 691.615 517.311 691.601M517.12 691.635C517.185 691.63 517.248 691.618 517.311 691.601M517.12 691.635C517.107 691.637 517.094 691.638 517.081 691.638M517.311 691.601C517.326 691.598 517.341 691.594 517.356 691.591M517.311 691.601C518.086 691.388 518.671 690.338 517.959 689.823C517.456 689.458 516.714 689.792 516.786 690.582M522.002 691.635C521.94 691.627 521.876 691.615 521.811 691.601M522.002 691.635C521.938 691.63 521.874 691.618 521.811 691.601M522.002 691.635C522.015 691.637 522.028 691.638 522.042 691.638M521.811 691.601C521.796 691.598 521.781 691.594 521.766 691.591M521.811 691.601C521.036 691.388 520.451 690.338 521.163 689.823C521.666 689.458 522.409 689.792 522.336 690.582" stroke="#565656"/>
<path d="M519.562 690.272C519.562 690.768 519.562 691.738 519.562 691.653" stroke="#565656"/>
<path d="M519.623 762.41C519.09 762.41 518.664 761.981 518.664 761.461C518.664 760.94 519.09 760.512 519.623 760.512C520.157 760.512 520.583 760.94 520.583 761.461C520.583 761.981 520.157 762.41 519.623 762.41Z" stroke="#565656"/>
<path d="M522.86 774.115C520.814 772.023 520.087 770.566 519.561 767.447C519.034 770.566 518.307 772.023 516.261 774.115L519.561 779.796L522.86 774.115Z" stroke="#565656"/>
<path d="M521.465 779.037C520.386 777.462 520.132 777.084 519.561 775.131C519.117 776.895 518.609 777.588 517.594 779.163L519.561 782.628L521.465 779.037Z" stroke="#565656"/>
<path d="M522.001 763.312C524.168 763.003 524.583 765.914 523.202 766.933C522.485 767.461 521.663 767.567 520.886 767.259C520.42 767.074 520.059 766.641 519.878 766.239C519.698 765.836 519.563 765.027 519.559 764.549C519.554 765.027 519.422 765.836 519.242 766.239C519.061 766.641 518.7 767.074 518.234 767.259C517.457 767.567 516.635 767.461 515.918 766.933C514.537 765.914 514.952 763.003 517.119 763.312M522.001 763.312C521.939 763.321 521.875 763.332 521.81 763.346M522.001 763.312C521.936 763.317 521.873 763.329 521.81 763.346M522.001 763.312C522.014 763.311 522.027 763.31 522.041 763.309M521.81 763.346C521.795 763.35 521.78 763.353 521.765 763.357M521.81 763.346C521.035 763.56 520.45 764.609 521.162 765.125C521.665 765.489 522.407 765.155 522.335 764.365M517.119 763.312C517.181 763.321 517.245 763.332 517.31 763.346M517.119 763.312C517.184 763.317 517.247 763.329 517.31 763.346M517.119 763.312C517.106 763.311 517.093 763.31 517.079 763.309M517.31 763.346C517.325 763.35 517.34 763.353 517.355 763.357M517.31 763.346C518.085 763.56 518.67 764.609 517.958 765.125C517.455 765.489 516.713 765.155 516.785 764.365" stroke="#565656"/>
<path d="M519.56 764.675C519.56 764.179 519.56 763.209 519.56 763.294" stroke="#565656"/>
<path d="M496.041 672.414L431.822 672.414" stroke="#565656" stroke-linecap="square"/>
<path d="M499.097 672.351C499.097 672.872 498.671 673.3 498.137 673.3C497.604 673.3 497.178 672.872 497.178 672.351C497.178 671.831 497.604 671.402 498.137 671.402C498.671 671.402 499.097 671.831 499.097 672.351Z" stroke="#565656"/>
<path d="M510.88 669.139C508.773 671.171 507.306 671.892 504.164 672.415C507.306 672.937 508.773 673.659 510.88 675.691L516.602 672.415L510.88 669.139Z" stroke="#565656"/>
<path d="M515.842 670.525C514.255 671.596 513.874 671.848 511.907 672.415C513.684 672.856 514.382 673.36 515.969 674.368L519.459 672.415L515.842 670.525Z" stroke="#565656"/>
<path d="M499.999 669.99C499.689 667.838 502.62 667.426 503.647 668.797C504.179 669.509 504.285 670.325 503.975 671.096C503.789 671.559 503.353 671.918 502.947 672.097C502.542 672.276 501.727 672.41 501.246 672.414C501.727 672.418 502.542 672.55 502.947 672.729C503.353 672.908 503.789 673.267 503.975 673.73C504.285 674.5 504.179 675.317 503.647 676.029C502.62 677.4 499.689 676.988 499.999 674.836M499.999 669.99C500.008 670.051 500.02 670.114 500.034 670.179M499.999 669.99C500.005 670.054 500.017 670.117 500.034 670.179M499.999 669.99C499.998 669.977 499.997 669.963 499.997 669.95M500.034 670.179C500.038 670.194 500.041 670.209 500.045 670.224M500.034 670.179C500.249 670.949 501.306 671.529 501.825 670.823C502.193 670.323 501.856 669.586 501.06 669.658M499.999 674.836C500.008 674.775 500.02 674.712 500.034 674.647M499.999 674.836C500.005 674.772 500.017 674.709 500.034 674.647M499.999 674.836C499.998 674.849 499.997 674.862 499.997 674.876M500.034 674.647C500.038 674.632 500.041 674.617 500.045 674.602M500.034 674.647C500.249 673.877 501.306 673.297 501.825 674.003C502.193 674.503 501.856 675.24 501.06 675.168" stroke="#565656"/>
<path d="M501.373 672.414C500.873 672.414 499.896 672.414 499.982 672.414" stroke="#565656"/>
<path d="M428.707 672.475C428.707 671.954 429.133 671.526 429.666 671.526C430.2 671.526 430.626 671.954 430.626 672.475C430.626 672.996 430.2 673.424 429.666 673.424C429.133 673.424 428.707 672.996 428.707 672.475Z" stroke="#565656"/>
<path d="M416.92 675.689C419.028 673.658 420.495 672.936 423.637 672.413C420.495 671.891 419.028 671.169 416.92 669.137L411.199 672.413L416.92 675.689Z" stroke="#565656"/>
<path d="M411.96 674.303C413.547 673.232 413.927 672.98 415.895 672.413C414.118 671.972 413.42 671.468 411.833 670.46L408.343 672.413L411.96 674.303Z" stroke="#565656"/>
<path d="M427.802 674.836C428.113 676.988 425.181 677.4 424.155 676.029C423.623 675.317 423.516 674.501 423.827 673.73C424.013 673.267 424.449 672.909 424.854 672.729C425.259 672.55 426.075 672.417 426.556 672.412C426.075 672.408 425.259 672.276 424.854 672.097C424.449 671.918 424.013 671.559 423.827 671.097C423.516 670.326 423.623 669.509 424.155 668.798C425.181 667.426 428.113 667.839 427.802 669.99M427.802 674.836C427.793 674.775 427.782 674.712 427.768 674.647M427.802 674.836C427.797 674.773 427.785 674.709 427.768 674.647M427.802 674.836C427.803 674.85 427.804 674.863 427.805 674.876M427.768 674.647C427.764 674.632 427.761 674.617 427.757 674.602M427.768 674.647C427.553 673.877 426.496 673.297 425.976 674.004C425.609 674.503 425.945 675.24 426.741 675.168M427.802 669.99C427.793 670.052 427.782 670.115 427.768 670.179M427.802 669.99C427.797 670.054 427.785 670.117 427.768 670.179M427.802 669.99C427.803 669.977 427.804 669.964 427.805 669.95M427.768 670.179C427.764 670.194 427.761 670.209 427.757 670.224M427.768 670.179C427.553 670.949 426.496 671.529 425.976 670.823C425.609 670.324 425.945 669.586 426.741 669.658" stroke="#565656"/>
<path d="M426.429 672.412C426.928 672.412 427.906 672.412 427.82 672.412" stroke="#565656"/>
<path d="M496.041 783.594L431.822 783.594" stroke="#565656" stroke-linecap="square"/>
<path d="M499.097 783.531C499.097 784.052 498.671 784.48 498.137 784.48C497.604 784.48 497.178 784.052 497.178 783.531C497.178 783.01 497.604 782.582 498.137 782.582C498.671 782.582 499.097 783.01 499.097 783.531Z" stroke="#565656"/>
<path d="M510.88 780.318C508.773 782.35 507.306 783.072 504.164 783.594C507.306 784.117 508.773 784.839 510.88 786.871L516.602 783.594L510.88 780.318Z" stroke="#565656"/>
<path d="M515.842 781.705C514.255 782.776 513.874 783.028 511.907 783.595C513.684 784.036 514.382 784.54 515.969 785.548L519.459 783.595L515.842 781.705Z" stroke="#565656"/>
<path d="M499.999 781.169C499.689 779.018 502.62 778.605 503.647 779.977C504.179 780.689 504.285 781.505 503.975 782.276C503.789 782.738 503.353 783.097 502.947 783.276C502.542 783.456 501.727 783.589 501.246 783.594C501.727 783.598 502.542 783.73 502.947 783.909C503.353 784.088 503.789 784.447 503.975 784.909C504.285 785.68 504.179 786.497 503.647 787.208C502.62 788.58 499.689 788.167 499.999 786.016M499.999 781.169C500.008 781.231 500.02 781.294 500.034 781.358M499.999 781.169C500.005 781.233 500.017 781.296 500.034 781.358M499.999 781.169C499.998 781.156 499.997 781.143 499.997 781.13M500.034 781.358C500.038 781.373 500.041 781.389 500.045 781.404M500.034 781.358C500.249 782.129 501.306 782.709 501.825 782.002C502.193 781.503 501.856 780.766 501.06 780.838M499.999 786.016C500.008 785.954 500.02 785.891 500.034 785.827M499.999 786.016C500.005 785.952 500.017 785.889 500.034 785.827M499.999 786.016C499.998 786.029 499.997 786.042 499.997 786.055M500.034 785.827C500.038 785.812 500.041 785.797 500.045 785.782M500.034 785.827C500.249 785.057 501.306 784.477 501.825 785.183C502.193 785.682 501.856 786.42 501.06 786.347" stroke="#565656"/>
<path d="M501.373 783.594C500.873 783.594 499.896 783.594 499.982 783.594" stroke="#565656"/>
<path d="M428.707 783.654C428.707 783.134 429.133 782.705 429.666 782.705C430.2 782.705 430.626 783.134 430.626 783.654C430.626 784.175 430.2 784.604 429.666 784.604C429.133 784.604 428.707 784.175 428.707 783.654Z" stroke="#565656"/>
<path d="M416.92 786.869C419.028 784.837 420.495 784.116 423.637 783.593C420.495 783.071 419.028 782.349 416.92 780.317L411.199 783.593L416.92 786.869Z" stroke="#565656"/>
<path d="M411.96 785.482C413.547 784.411 413.927 784.159 415.895 783.592C414.118 783.151 413.42 782.647 411.833 781.639L408.343 783.592L411.96 785.482Z" stroke="#565656"/>
<path d="M427.802 786.016C428.113 788.168 425.181 788.58 424.155 787.209C423.623 786.497 423.516 785.68 423.827 784.91C424.013 784.447 424.449 784.088 424.854 783.909C425.259 783.73 426.075 783.596 426.556 783.592C426.075 783.587 425.259 783.456 424.854 783.277C424.449 783.098 424.013 782.739 423.827 782.276C423.516 781.505 423.623 780.689 424.155 779.977C425.181 778.606 428.113 779.018 427.802 781.17M427.802 786.016C427.793 785.955 427.782 785.892 427.768 785.827M427.802 786.016C427.797 785.952 427.785 785.889 427.768 785.827M427.802 786.016C427.803 786.029 427.804 786.042 427.805 786.056M427.768 785.827C427.764 785.812 427.761 785.797 427.757 785.782M427.768 785.827C427.553 785.057 426.496 784.477 425.976 785.183C425.609 785.683 425.945 786.42 426.741 786.348M427.802 781.17C427.793 781.231 427.782 781.294 427.768 781.359M427.802 781.17C427.797 781.234 427.785 781.297 427.768 781.359M427.802 781.17C427.803 781.157 427.804 781.143 427.805 781.13M427.768 781.359C427.764 781.374 427.761 781.389 427.757 781.404M427.768 781.359C427.553 782.129 426.496 782.709 425.976 782.002C425.609 781.503 425.945 780.766 426.741 780.838" stroke="#565656"/>
<path d="M426.429 783.592C426.928 783.592 427.906 783.592 427.82 783.592" stroke="#565656"/>
<g filter="url(#filter7_d_911_2)">
<path d="M356.054 556H307.8L292 571.8V620.054L306.946 635H356.481L371 620.481V570.946L356.054 556Z" fill="white" fill-opacity="0.38" shape-rendering="crispEdges"/>
</g>
<defs>
<filter id="filter0_i_911_2" x="9.40039" y="10.373" width="115.2" height="115.193" filterUnits="userSpaceOnUse" color-interpolation-filters="sRGB">
<feFlood flood-opacity="0" result="BackgroundImageFix"/>
<feBlend mode="normal" in="SourceGraphic" in2="BackgroundImageFix" result="shape"/>
<feColorMatrix in="SourceAlpha" type="matrix" values="0 0 0 0 0 0 0 0 0 0 0 0 0 0 0 0 0 0 127 0" result="hardAlpha"/>
<feOffset/>
<feGaussianBlur stdDeviation="10"/>
<feComposite in2="hardAlpha" operator="arithmetic" k2="-1" k3="1"/>
<feColorMatrix type="matrix" values="0 0 0 0 0 0 0 0 0 0 0 0 0 0 0 0 0 0 0.9 0"/>
<feBlend mode="normal" in2="shape" result="effect1_innerShadow_911_2"/>
</filter>
<filter id="filter1_i_911_2" x="141.4" y="10.373" width="115.2" height="115.193" filterUnits="userSpaceOnUse" color-interpolation-filters="sRGB">
<feFlood flood-opacity="0" result="BackgroundImageFix"/>
<feBlend mode="normal" in="SourceGraphic" in2="BackgroundImageFix" result="shape"/>
<feColorMatrix in="SourceAlpha" type="matrix" values="0 0 0 0 0 0 0 0 0 0 0 0 0 0 0 0 0 0 127 0" result="hardAlpha"/>
<feOffset/>
<feGaussianBlur stdDeviation="10"/>
<feComposite in2="hardAlpha" operator="arithmetic" k2="-1" k3="1"/>
<feColorMatrix type="matrix" values="0 0 0 0 0 0 0 0 0 0 0 0 0 0 0 0 0 0 0.9 0"/>
<feBlend mode="normal" in2="shape" result="effect1_innerShadow_911_2"/>
</filter>
<filter id="filter2_i_911_2" x="273.4" y="10.373" width="115.2" height="115.193" filterUnits="userSpaceOnUse" color-interpolation-filters="sRGB">
<feFlood flood-opacity="0" result="BackgroundImageFix"/>
<feBlend mode="normal" in="SourceGraphic" in2="BackgroundImageFix" result="shape"/>
<feColorMatrix in="SourceAlpha" type="matrix" values="0 0 0 0 0 0 0 0 0 0 0 0 0 0 0 0 0 0 127 0" result="hardAlpha"/>
<feOffset/>
<feGaussianBlur stdDeviation="10"/>
<feComposite in2="hardAlpha" operator="arithmetic" k2="-1" k3="1"/>
<feColorMatrix type="matrix" values="0 0 0 0 0 0 0 0 0 0 0 0 0 0 0 0 0 0 0.9 0"/>
<feBlend mode="normal" in2="shape" result="effect1_innerShadow_911_2"/>
</filter>
<filter id="filter3_i_911_2" x="405.4" y="10.373" width="115.2" height="115.193" filterUnits="userSpaceOnUse" color-interpolation-filters="sRGB">
<feFlood flood-opacity="0" result="BackgroundImageFix"/>
<feBlend mode="normal" in="SourceGraphic" in2="BackgroundImageFix" result="shape"/>
<feColorMatrix in="SourceAlpha" type="matrix" values="0 0 0 0 0 0 0 0 0 0 0 0 0 0 0 0 0 0 127 0" result="hardAlpha"/>
<feOffset/>
<feGaussianBlur stdDeviation="10"/>
<feComposite in2="hardAlpha" operator="arithmetic" k2="-1" k3="1"/>
<feColorMatrix type="matrix" values="0 0 0 0 0 0 0 0 0 0 0 0 0 0 0 0 0 0 0.9 0"/>
<feBlend mode="normal" in2="shape" result="effect1_innerShadow_911_2"/>
</filter>
<filter id="filter4_i_911_2" x="286.675" y="154.453" width="90.6514" height="91.0938" filterUnits="userSpaceOnUse" color-interpolation-filters="sRGB">
<feFlood flood-opacity="0" result="BackgroundImageFix"/>
<feBlend mode="normal" in="SourceGraphic" in2="BackgroundImageFix" result="shape"/>
<feColorMatrix in="SourceAlpha" type="matrix" values="0 0 0 0 0 0 0 0 0 0 0 0 0 0 0 0 0 0 127 0" result="hardAlpha"/>
<feOffset/>
<feGaussianBlur stdDeviation="5"/>
<feComposite in2="hardAlpha" operator="arithmetic" k2="-1" k3="1"/>
<feColorMatrix type="matrix" values="0 0 0 0 0 0 0 0 0 0 0 0 0 0 0 0 0 0 0.6 0"/>
<feBlend mode="normal" in2="shape" result="effect1_innerShadow_911_2"/>
</filter>
<filter id="filter5_d_911_2" x="402" y="402" width="124" height="124" filterUnits="userSpaceOnUse" color-interpolation-filters="sRGB">
<feFlood flood-opacity="0" result="BackgroundImageFix"/>
<feColorMatrix in="SourceAlpha" type="matrix" values="0 0 0 0 0 0 0 0 0 0 0 0 0 0 0 0 0 0 127 0" result="hardAlpha"/>
<feOffset/>
<feGaussianBlur stdDeviation="4"/>
<feComposite in2="hardAlpha" operator="out"/>
<feColorMatrix type="matrix" values="0 0 0 0 0 0 0 0 0 0 0 0 0 0 0 0 0 0 0.8 0"/>
<feBlend mode="normal" in2="BackgroundImageFix" result="effect1_dropShadow_911_2"/>
<feBlend mode="normal" in="SourceGraphic" in2="effect1_dropShadow_911_2" result="shape"/>
</filter>
<filter id="filter6_d_911_2" x="272" y="408" width="120" height="120" filterUnits="userSpaceOnUse" color-interpolation-filters="sRGB">
<feFlood flood-opacity="0" result="BackgroundImageFix"/>
<feColorMatrix in="SourceAlpha" type="matrix" values="0 0 0 0 0 0 0 0 0 0 0 0 0 0 0 0 0 0 127 0" result="hardAlpha"/>
<feOffset dy="4"/>
<feGaussianBlur stdDeviation="2"/>
<feComposite in2="hardAlpha" operator="out"/>
<feColorMatrix type="matrix" values="0 0 0 0 0 0 0 0 0 0 0 0 0 0 0 0 0 0 0.25 0"/>
<feBlend mode="normal" in2="BackgroundImageFix" result="effect1_dropShadow_911_2"/>
<feBlend mode="normal" in="SourceGraphic" in2="effect1_dropShadow_911_2" result="shape"/>
</filter>
<filter id="filter7_d_911_2" x="288" y="552" width="87" height="87" filterUnits="userSpaceOnUse" color-interpolation-filters="sRGB">
<feFlood flood-opacity="0" result="BackgroundImageFix"/>
<feColorMatrix in="SourceAlpha" type="matrix" values="0 0 0 0 0 0 0 0 0 0 0 0 0 0 0 0 0 0 127 0" result="hardAlpha"/>
<feOffset/>
<feGaussianBlur stdDeviation="2"/>
<feComposite in2="hardAlpha" operator="out"/>
<feColorMatrix type="matrix" values="0 0 0 0 0 0 0 0 0 0 0 0 0 0 0 0 0 0 0.8 0"/>
<feBlend mode="normal" in2="BackgroundImageFix" result="effect1_dropShadow_911_2"/>
<feBlend mode="normal" in="SourceGraphic" in2="effect1_dropShadow_911_2" result="shape"/>
</filter>
<linearGradient id="paint0_linear_911_2" x1="67" y1="4" x2="67" y2="132" gradientUnits="userSpaceOnUse">
<stop offset="0.0183275" stop-color="#BBBBBB"/>
<stop offset="0.204684" stop-color="#D6D6D6"/>
<stop offset="0.345537" stop-color="#8B8B8B"/>
<stop offset="0.694823" stop-color="#8B8B8B"/>
<stop offset="0.846297" stop-color="#A5A5A5"/>
<stop offset="0.999785" stop-color="#5A5A5A"/>
</linearGradient>
<linearGradient id="paint1_linear_911_2" x1="199" y1="4" x2="199" y2="132" gradientUnits="userSpaceOnUse">
<stop offset="0.150809" stop-color="#FFAB2E"/>
<stop offset="0.535166" stop-color="#FFD28F"/>
<stop offset="1" stop-color="#A26100"/>
</linearGradient>
<linearGradient id="paint2_linear_911_2" x1="331" y1="4" x2="331" y2="132" gradientUnits="userSpaceOnUse">
<stop stop-color="#8DFFE4"/>
<stop offset="1" stop-color="#156955"/>
</linearGradient>
<linearGradient id="paint3_linear_911_2" x1="463" y1="4" x2="463" y2="132" gradientUnits="userSpaceOnUse">
<stop stop-color="#F2AAFE"/>
<stop offset="1" stop-color="#5D1569"/>
</linearGradient>
<linearGradient id="paint4_linear_911_2" x1="68.0003" y1="154.453" x2="68.0003" y2="245.547" gradientUnits="userSpaceOnUse">
<stop stop-color="#423952"/>
<stop offset="1" stop-color="#212129"/>
</linearGradient>
<linearGradient id="paint5_linear_911_2" x1="68" y1="392" x2="68" y2="528" gradientUnits="userSpaceOnUse">
<stop stop-color="#A383FF"/>
<stop offset="0.239832" stop-color="#57C9BB"/>
<stop offset="0.704338" stop-color="#57C9BB"/>
<stop offset="0.903012" stop-color="#437092"/>
</linearGradient>
<linearGradient id="paint6_linear_911_2" x1="464" y1="392" x2="464" y2="528" gradientUnits="userSpaceOnUse">
<stop stop-color="#A383FF"/>
<stop offset="0.239832" stop-color="#57C9BB"/>
<stop offset="0.704338" stop-color="#57C9BB"/>
<stop offset="0.903012" stop-color="#437092"/>
</linearGradient>
<linearGradient id="paint7_linear_911_2" x1="200" y1="268" x2="200" y2="396" gradientUnits="userSpaceOnUse">
<stop stop-color="#FF4D00"/>
<stop offset="0.213938" stop-color="#FF7A00"/>
<stop offset="0.518794" stop-color="#FFC700"/>
<stop offset="0.787572" stop-color="#FF7A00"/>
<stop offset="1" stop-color="#FF0000"/>
</linearGradient>
<linearGradient id="paint8_linear_911_2" x1="332" y1="392" x2="332" y2="528" gradientUnits="userSpaceOnUse">
<stop stop-color="#FF4D00"/>
<stop offset="0.318532" stop-color="#EBD147"/>
<stop offset="0.751234" stop-color="#EBD147"/>
<stop offset="0.941142" stop-color="#FF4D00"/>
</linearGradient>
<linearGradient id="paint9_linear_911_2" x1="332" y1="408" x2="332" y2="520" gradientUnits="userSpaceOnUse">
<stop stop-color="#FF4D00"/>
<stop offset="0.213938" stop-color="#FF7A00"/>
<stop offset="0.518794" stop-color="#FFC700"/>
<stop offset="0.787572" stop-color="#FF7A00"/>
<stop offset="1" stop-color="#FF0000"/>
</linearGradient>
<radialGradient id="paint10_radial_911_2" cx="0" cy="0" r="1" gradientUnits="userSpaceOnUse" gradientTransform="translate(200.001 596.001) rotate(-45.695) scale(116.681)">
<stop offset="0.407469" stop-color="#D26805"/>
<stop offset="0.745913" stop-color="#FFCF52"/>
</radialGradient>
<linearGradient id="paint11_linear_911_2" x1="199.5" y1="552" x2="199.5" y2="639" gradientUnits="userSpaceOnUse">
<stop stop-color="#FF9B3F"/>
<stop offset="0.323912" stop-color="#FFEDD2"/>
<stop offset="0.670661" stop-color="#FFEDD2"/>
<stop offset="1" stop-color="#FF9B3F"/>
</linearGradient>
<clipPath id="clip0_911_2">
<rect width="128" height="128" fill="white" transform="translate(4 136)"/>
</clipPath>
<clipPath id="clip1_911_2">
<rect width="128" height="128" fill="white" transform="translate(136 136)"/>
</clipPath>
<clipPath id="clip2_911_2">
<rect width="128" height="128" fill="white" transform="translate(268 136)"/>
</clipPath>
<clipPath id="clip3_911_2">
<rect width="128" height="128" fill="white" transform="translate(400 136)"/>
</clipPath>
</defs>
</svg>
